<svg width="1691" height="911" viewBox="0 0 1691 911" fill="none" xmlns="http://www.w3.org/2000/svg" xmlns:xlink="http://www.w3.org/1999/xlink">
<rect width="1690.5" height="911" fill="url(#pattern0_404_100)"></rect>
<rect x="629" y="705" width="386" height="100" stroke="#BFDBFE" stroke-width="4"></rect>
<line x1="264.989" y1="763" x2="626.989" y2="761" stroke="#BFDBFE" stroke-width="4"></line>
<line x1="984.682" y1="574.12" x2="1246.68" y2="669.12" stroke="#BFDBFE" stroke-width="4"></line>
<path d="M662.378 739.091C662.293 738.371 661.947 737.812 661.341 737.415C660.735 737.017 659.992 736.818 659.111 736.818C658.467 736.818 657.904 736.922 657.421 737.131C656.942 737.339 656.568 737.625 656.298 737.99C656.033 738.355 655.901 738.769 655.901 739.233C655.901 739.621 655.993 739.955 656.178 740.234C656.367 740.509 656.609 740.739 656.902 740.923C657.196 741.103 657.503 741.252 657.825 741.371C658.147 741.484 658.443 741.577 658.713 741.648L660.191 742.045C660.569 742.145 660.991 742.282 661.455 742.457C661.923 742.633 662.371 742.872 662.797 743.175C663.228 743.473 663.583 743.857 663.862 744.325C664.142 744.794 664.281 745.369 664.281 746.051C664.281 746.837 664.075 747.547 663.664 748.182C663.256 748.816 662.66 749.321 661.874 749.695C661.093 750.069 660.143 750.256 659.026 750.256C657.984 750.256 657.082 750.088 656.32 749.751C655.562 749.415 654.966 748.946 654.53 748.345C654.099 747.744 653.855 747.045 653.798 746.25H655.617C655.664 746.799 655.849 747.254 656.171 747.614C656.497 747.969 656.909 748.234 657.406 748.409C657.908 748.58 658.448 748.665 659.026 748.665C659.698 748.665 660.302 748.556 660.837 748.338C661.372 748.116 661.796 747.808 662.108 747.415C662.421 747.017 662.577 746.553 662.577 746.023C662.577 745.54 662.442 745.147 662.172 744.844C661.902 744.541 661.547 744.295 661.107 744.105C660.666 743.916 660.191 743.75 659.679 743.608L657.889 743.097C656.753 742.77 655.853 742.304 655.191 741.697C654.528 741.091 654.196 740.298 654.196 739.318C654.196 738.504 654.416 737.794 654.857 737.188C655.302 736.577 655.898 736.103 656.646 735.767C657.399 735.426 658.24 735.256 659.168 735.256C660.105 735.256 660.939 735.424 661.668 735.76C662.397 736.091 662.975 736.546 663.401 737.124C663.832 737.701 664.059 738.357 664.083 739.091H662.378ZM671.524 750.227C670.473 750.227 669.566 749.995 668.804 749.531C668.046 749.062 667.461 748.409 667.05 747.571C666.642 746.728 666.439 745.748 666.439 744.631C666.439 743.513 666.642 742.528 667.05 741.676C667.461 740.819 668.034 740.152 668.768 739.673C669.507 739.19 670.369 738.949 671.354 738.949C671.922 738.949 672.483 739.044 673.037 739.233C673.591 739.422 674.095 739.73 674.55 740.156C675.004 740.578 675.366 741.136 675.636 741.832C675.906 742.528 676.041 743.385 676.041 744.403V745.114H667.632V743.665H674.336C674.336 743.049 674.213 742.5 673.967 742.017C673.726 741.534 673.38 741.153 672.93 740.874C672.485 740.594 671.96 740.455 671.354 740.455C670.686 740.455 670.108 740.62 669.621 740.952C669.138 741.278 668.766 741.705 668.506 742.23C668.245 742.756 668.115 743.319 668.115 743.92V744.886C668.115 745.71 668.257 746.409 668.541 746.982C668.83 747.55 669.23 747.983 669.741 748.281C670.253 748.575 670.847 748.722 671.524 748.722C671.964 748.722 672.362 748.66 672.717 748.537C673.077 748.409 673.387 748.22 673.648 747.969C673.908 747.713 674.109 747.396 674.251 747.017L675.871 747.472C675.7 748.021 675.414 748.504 675.011 748.92C674.609 749.332 674.112 749.654 673.52 749.886C672.928 750.114 672.263 750.227 671.524 750.227ZM680.267 735.455V750H678.591V735.455H680.267ZM687.911 750.227C686.86 750.227 685.953 749.995 685.191 749.531C684.433 749.062 683.848 748.409 683.436 747.571C683.029 746.728 682.825 745.748 682.825 744.631C682.825 743.513 683.029 742.528 683.436 741.676C683.848 740.819 684.421 740.152 685.155 739.673C685.894 739.19 686.755 738.949 687.74 738.949C688.308 738.949 688.869 739.044 689.423 739.233C689.977 739.422 690.482 739.73 690.936 740.156C691.391 740.578 691.753 741.136 692.023 741.832C692.293 742.528 692.428 743.385 692.428 744.403V745.114H684.019V743.665H690.723C690.723 743.049 690.6 742.5 690.354 742.017C690.112 741.534 689.767 741.153 689.317 740.874C688.872 740.594 688.346 740.455 687.74 740.455C687.073 740.455 686.495 740.62 686.007 740.952C685.524 741.278 685.153 741.705 684.892 742.23C684.632 742.756 684.502 743.319 684.502 743.92V744.886C684.502 745.71 684.644 746.409 684.928 746.982C685.217 747.55 685.617 747.983 686.128 748.281C686.639 748.575 687.234 748.722 687.911 748.722C688.351 748.722 688.749 748.66 689.104 748.537C689.464 748.409 689.774 748.22 690.034 747.969C690.295 747.713 690.496 747.396 690.638 747.017L692.257 747.472C692.087 748.021 691.8 748.504 691.398 748.92C690.995 749.332 690.498 749.654 689.906 749.886C689.315 750.114 688.649 750.227 687.911 750.227ZM699.409 750.227C698.387 750.227 697.506 749.986 696.767 749.503C696.029 749.02 695.46 748.355 695.063 747.507C694.665 746.66 694.466 745.691 694.466 744.602C694.466 743.494 694.67 742.517 695.077 741.669C695.489 740.817 696.062 740.152 696.796 739.673C697.534 739.19 698.396 738.949 699.381 738.949C700.148 738.949 700.839 739.091 701.455 739.375C702.07 739.659 702.575 740.057 702.968 740.568C703.36 741.08 703.604 741.676 703.699 742.358H702.023C701.895 741.861 701.611 741.42 701.171 741.037C700.735 740.649 700.148 740.455 699.409 740.455C698.756 740.455 698.183 740.625 697.691 740.966C697.203 741.302 696.822 741.778 696.547 742.393C696.277 743.004 696.142 743.722 696.142 744.545C696.142 745.388 696.275 746.122 696.54 746.747C696.81 747.372 697.189 747.857 697.676 748.203C698.169 748.549 698.746 748.722 699.409 748.722C699.845 748.722 700.24 748.646 700.595 748.494C700.95 748.343 701.251 748.125 701.497 747.841C701.744 747.557 701.919 747.216 702.023 746.818H703.699C703.604 747.462 703.37 748.042 702.996 748.558C702.627 749.07 702.137 749.477 701.526 749.78C700.92 750.078 700.214 750.227 699.409 750.227ZM710.894 739.091V740.511H705.24V739.091H710.894ZM706.888 736.477H708.564V746.875C708.564 747.348 708.633 747.704 708.77 747.94C708.912 748.172 709.092 748.329 709.31 748.409C709.532 748.485 709.767 748.523 710.013 748.523C710.198 748.523 710.349 748.513 710.468 748.494C710.586 748.471 710.681 748.452 710.752 748.438L711.093 749.943C710.979 749.986 710.82 750.028 710.617 750.071C710.413 750.118 710.155 750.142 709.843 750.142C709.369 750.142 708.905 750.04 708.45 749.837C708.001 749.633 707.627 749.323 707.328 748.906C707.035 748.49 706.888 747.964 706.888 747.33V736.477ZM722.25 750.256C721.559 750.256 720.932 750.125 720.368 749.865C719.805 749.6 719.357 749.219 719.026 748.722C718.694 748.22 718.529 747.614 718.529 746.903C718.529 746.278 718.652 745.772 718.898 745.384C719.144 744.991 719.473 744.683 719.885 744.46C720.297 744.238 720.752 744.072 721.249 743.963C721.751 743.849 722.255 743.759 722.762 743.693C723.424 743.608 723.962 743.544 724.374 743.501C724.79 743.454 725.093 743.376 725.283 743.267C725.477 743.158 725.574 742.969 725.574 742.699V742.642C725.574 741.941 725.382 741.397 724.999 741.009C724.62 740.62 724.045 740.426 723.273 740.426C722.473 740.426 721.845 740.601 721.391 740.952C720.936 741.302 720.617 741.676 720.432 742.074L718.841 741.506C719.125 740.843 719.504 740.327 719.977 739.957C720.456 739.583 720.977 739.323 721.54 739.176C722.108 739.025 722.667 738.949 723.216 738.949C723.566 738.949 723.969 738.991 724.423 739.077C724.883 739.157 725.325 739.325 725.752 739.581C726.182 739.837 726.54 740.223 726.824 740.739C727.108 741.255 727.25 741.946 727.25 742.812V750H725.574V748.523H725.489C725.375 748.759 725.186 749.013 724.921 749.283C724.655 749.553 724.303 749.782 723.862 749.972C723.422 750.161 722.885 750.256 722.25 750.256ZM722.506 748.75C723.169 748.75 723.727 748.62 724.182 748.359C724.641 748.099 724.987 747.763 725.219 747.351C725.456 746.939 725.574 746.506 725.574 746.051V744.517C725.503 744.602 725.347 744.68 725.105 744.751C724.869 744.818 724.594 744.877 724.281 744.929C723.974 744.976 723.673 745.019 723.379 745.057C723.091 745.09 722.856 745.118 722.676 745.142C722.241 745.199 721.834 745.291 721.455 745.419C721.081 745.542 720.778 745.729 720.546 745.98C720.318 746.226 720.205 746.562 720.205 746.989C720.205 747.571 720.42 748.011 720.851 748.31C721.287 748.603 721.838 748.75 722.506 748.75ZM740.054 750.227C739.145 750.227 738.342 749.998 737.646 749.538C736.95 749.074 736.406 748.421 736.013 747.578C735.62 746.731 735.423 745.729 735.423 744.574C735.423 743.428 735.62 742.434 736.013 741.591C736.406 740.748 736.952 740.097 737.653 739.638C738.354 739.179 739.164 738.949 740.082 738.949C740.792 738.949 741.354 739.067 741.765 739.304C742.182 739.536 742.499 739.801 742.717 740.099C742.94 740.393 743.113 740.634 743.236 740.824H743.378V735.455H745.054V750H743.434V748.324H743.236C743.113 748.523 742.937 748.774 742.71 749.077C742.483 749.375 742.158 749.643 741.737 749.879C741.316 750.111 740.755 750.227 740.054 750.227ZM740.281 748.722C740.953 748.722 741.522 748.546 741.986 748.196C742.45 747.841 742.802 747.351 743.044 746.726C743.285 746.096 743.406 745.369 743.406 744.545C743.406 743.731 743.288 743.018 743.051 742.408C742.814 741.792 742.464 741.314 742 740.973C741.536 740.627 740.963 740.455 740.281 740.455C739.571 740.455 738.979 740.637 738.506 741.001C738.037 741.361 737.684 741.851 737.447 742.472C737.215 743.087 737.099 743.778 737.099 744.545C737.099 745.322 737.218 746.027 737.454 746.662C737.696 747.292 738.051 747.794 738.52 748.168C738.993 748.537 739.58 748.722 740.281 748.722ZM751.567 750.256C750.875 750.256 750.248 750.125 749.684 749.865C749.121 749.6 748.674 749.219 748.342 748.722C748.011 748.22 747.845 747.614 747.845 746.903C747.845 746.278 747.968 745.772 748.214 745.384C748.461 744.991 748.79 744.683 749.202 744.46C749.613 744.238 750.068 744.072 750.565 743.963C751.067 743.849 751.571 743.759 752.078 743.693C752.741 743.608 753.278 743.544 753.69 743.501C754.107 743.454 754.41 743.376 754.599 743.267C754.793 743.158 754.89 742.969 754.89 742.699V742.642C754.89 741.941 754.699 741.397 754.315 741.009C753.936 740.62 753.361 740.426 752.589 740.426C751.789 740.426 751.162 740.601 750.707 740.952C750.253 741.302 749.933 741.676 749.748 742.074L748.157 741.506C748.442 740.843 748.82 740.327 749.294 739.957C749.772 739.583 750.293 739.323 750.856 739.176C751.425 739.025 751.983 738.949 752.532 738.949C752.883 738.949 753.285 738.991 753.74 739.077C754.199 739.157 754.642 739.325 755.068 739.581C755.499 739.837 755.856 740.223 756.14 740.739C756.425 741.255 756.567 741.946 756.567 742.812V750H754.89V748.523H754.805C754.692 748.759 754.502 749.013 754.237 749.283C753.972 749.553 753.619 749.782 753.179 749.972C752.738 750.161 752.201 750.256 751.567 750.256ZM751.822 748.75C752.485 748.75 753.044 748.62 753.498 748.359C753.958 748.099 754.303 747.763 754.535 747.351C754.772 746.939 754.89 746.506 754.89 746.051V744.517C754.819 744.602 754.663 744.68 754.422 744.751C754.185 744.818 753.91 744.877 753.598 744.929C753.29 744.976 752.989 745.019 752.696 745.057C752.407 745.09 752.173 745.118 751.993 745.142C751.557 745.199 751.15 745.291 750.771 745.419C750.397 745.542 750.094 745.729 749.862 745.98C749.635 746.226 749.521 746.562 749.521 746.989C749.521 747.571 749.737 748.011 750.167 748.31C750.603 748.603 751.155 748.75 751.822 748.75ZM760.315 754.091C760.031 754.091 759.777 754.067 759.555 754.02C759.332 753.977 759.178 753.935 759.093 753.892L759.519 752.415C759.927 752.519 760.286 752.557 760.599 752.528C760.911 752.5 761.188 752.36 761.43 752.109C761.676 751.863 761.901 751.463 762.105 750.909L762.417 750.057L758.383 739.091H760.201L763.213 747.784H763.326L766.338 739.091H768.156L763.525 751.591C763.317 752.154 763.059 752.621 762.751 752.99C762.443 753.364 762.086 753.641 761.678 753.821C761.276 754.001 760.821 754.091 760.315 754.091ZM780.737 739.091V740.511H775.084V739.091H780.737ZM776.732 736.477H778.408V746.875C778.408 747.348 778.477 747.704 778.614 747.94C778.756 748.172 778.936 748.329 779.154 748.409C779.376 748.485 779.61 748.523 779.857 748.523C780.041 748.523 780.193 748.513 780.311 748.494C780.43 748.471 780.524 748.452 780.595 748.438L780.936 749.943C780.823 749.986 780.664 750.028 780.46 750.071C780.257 750.118 779.999 750.142 779.686 750.142C779.213 750.142 778.749 750.04 778.294 749.837C777.844 749.633 777.47 749.323 777.172 748.906C776.878 748.49 776.732 747.964 776.732 747.33V736.477ZM787.573 750.227C786.588 750.227 785.724 749.993 784.981 749.524C784.242 749.055 783.665 748.4 783.248 747.557C782.836 746.714 782.63 745.729 782.63 744.602C782.63 743.466 782.836 742.474 783.248 741.626C783.665 740.779 784.242 740.121 784.981 739.652C785.724 739.183 786.588 738.949 787.573 738.949C788.558 738.949 789.42 739.183 790.159 739.652C790.902 740.121 791.48 740.779 791.892 741.626C792.308 742.474 792.517 743.466 792.517 744.602C792.517 745.729 792.308 746.714 791.892 747.557C791.48 748.4 790.902 749.055 790.159 749.524C789.42 749.993 788.558 750.227 787.573 750.227ZM787.573 748.722C788.321 748.722 788.937 748.53 789.42 748.146C789.903 747.763 790.26 747.259 790.492 746.634C790.724 746.009 790.84 745.331 790.84 744.602C790.84 743.873 790.724 743.194 790.492 742.564C790.26 741.934 789.903 741.425 789.42 741.037C788.937 740.649 788.321 740.455 787.573 740.455C786.825 740.455 786.21 740.649 785.727 741.037C785.244 741.425 784.886 741.934 784.654 742.564C784.422 743.194 784.306 743.873 784.306 744.602C784.306 745.331 784.422 746.009 784.654 746.634C784.886 747.259 785.244 747.763 785.727 748.146C786.21 748.53 786.825 748.722 787.573 748.722ZM805.132 750.227C804.109 750.227 803.229 749.986 802.49 749.503C801.751 749.02 801.183 748.355 800.785 747.507C800.388 746.66 800.189 745.691 800.189 744.602C800.189 743.494 800.392 742.517 800.8 741.669C801.211 740.817 801.784 740.152 802.518 739.673C803.257 739.19 804.119 738.949 805.104 738.949C805.871 738.949 806.562 739.091 807.177 739.375C807.793 739.659 808.297 740.057 808.69 740.568C809.083 741.08 809.327 741.676 809.422 742.358H807.746C807.618 741.861 807.334 741.42 806.893 741.037C806.458 740.649 805.871 740.455 805.132 740.455C804.479 740.455 803.906 740.625 803.413 740.966C802.925 741.302 802.544 741.778 802.27 742.393C802 743.004 801.865 743.722 801.865 744.545C801.865 745.388 801.997 746.122 802.263 746.747C802.532 747.372 802.911 747.857 803.399 748.203C803.891 748.549 804.469 748.722 805.132 748.722C805.568 748.722 805.963 748.646 806.318 748.494C806.673 748.343 806.974 748.125 807.22 747.841C807.466 747.557 807.641 747.216 807.746 746.818H809.422C809.327 747.462 809.093 748.042 808.719 748.558C808.349 749.07 807.859 749.477 807.248 749.78C806.642 750.078 805.937 750.227 805.132 750.227ZM811.872 750V739.091H813.491V740.739H813.605C813.804 740.199 814.164 739.761 814.684 739.425C815.205 739.089 815.792 738.92 816.446 738.92C816.569 738.92 816.723 738.923 816.907 738.928C817.092 738.932 817.232 738.939 817.327 738.949V740.653C817.27 740.639 817.14 740.618 816.936 740.589C816.737 740.556 816.526 740.54 816.304 740.54C815.773 740.54 815.3 740.651 814.883 740.874C814.471 741.091 814.145 741.394 813.903 741.783C813.666 742.166 813.548 742.604 813.548 743.097V750H811.872ZM823.555 750.227C822.504 750.227 821.597 749.995 820.835 749.531C820.077 749.062 819.493 748.409 819.081 747.571C818.674 746.728 818.47 745.748 818.47 744.631C818.47 743.513 818.674 742.528 819.081 741.676C819.493 740.819 820.066 740.152 820.8 739.673C821.538 739.19 822.4 738.949 823.385 738.949C823.953 738.949 824.514 739.044 825.068 739.233C825.622 739.422 826.126 739.73 826.581 740.156C827.035 740.578 827.398 741.136 827.667 741.832C827.937 742.528 828.072 743.385 828.072 744.403V745.114H819.663V743.665H826.368C826.368 743.049 826.245 742.5 825.998 742.017C825.757 741.534 825.411 741.153 824.961 740.874C824.516 740.594 823.991 740.455 823.385 740.455C822.717 740.455 822.14 740.62 821.652 740.952C821.169 741.278 820.797 741.705 820.537 742.23C820.276 742.756 820.146 743.319 820.146 743.92V744.886C820.146 745.71 820.288 746.409 820.572 746.982C820.861 747.55 821.261 747.983 821.773 748.281C822.284 748.575 822.878 748.722 823.555 748.722C823.996 748.722 824.393 748.66 824.748 748.537C825.108 748.409 825.418 748.22 825.679 747.969C825.939 747.713 826.14 747.396 826.282 747.017L827.902 747.472C827.731 748.021 827.445 748.504 827.042 748.92C826.64 749.332 826.143 749.654 825.551 749.886C824.959 750.114 824.294 750.227 823.555 750.227ZM833.832 750.256C833.141 750.256 832.514 750.125 831.95 749.865C831.387 749.6 830.939 749.219 830.608 748.722C830.276 748.22 830.111 747.614 830.111 746.903C830.111 746.278 830.234 745.772 830.48 745.384C830.726 744.991 831.055 744.683 831.467 744.46C831.879 744.238 832.334 744.072 832.831 743.963C833.333 743.849 833.837 743.759 834.344 743.693C835.006 743.608 835.544 743.544 835.956 743.501C836.372 743.454 836.675 743.376 836.865 743.267C837.059 743.158 837.156 742.969 837.156 742.699V742.642C837.156 741.941 836.964 741.397 836.581 741.009C836.202 740.62 835.627 740.426 834.855 740.426C834.055 740.426 833.427 740.601 832.973 740.952C832.518 741.302 832.199 741.676 832.014 742.074L830.423 741.506C830.707 740.843 831.086 740.327 831.559 739.957C832.038 739.583 832.559 739.323 833.122 739.176C833.69 739.025 834.249 738.949 834.798 738.949C835.148 738.949 835.551 738.991 836.006 739.077C836.465 739.157 836.907 739.325 837.334 739.581C837.765 739.837 838.122 740.223 838.406 740.739C838.69 741.255 838.832 741.946 838.832 742.812V750H837.156V748.523H837.071C836.957 748.759 836.768 749.013 836.503 749.283C836.238 749.553 835.885 749.782 835.444 749.972C835.004 750.161 834.467 750.256 833.832 750.256ZM834.088 748.75C834.751 748.75 835.309 748.62 835.764 748.359C836.223 748.099 836.569 747.763 836.801 747.351C837.038 746.939 837.156 746.506 837.156 746.051V744.517C837.085 744.602 836.929 744.68 836.687 744.751C836.451 744.818 836.176 744.877 835.863 744.929C835.556 744.976 835.255 745.019 834.961 745.057C834.673 745.09 834.438 745.118 834.258 745.142C833.823 745.199 833.416 745.291 833.037 745.419C832.663 745.542 832.36 745.729 832.128 745.98C831.9 746.226 831.787 746.562 831.787 746.989C831.787 747.571 832.002 748.011 832.433 748.31C832.869 748.603 833.42 748.75 834.088 748.75ZM846.636 739.091V740.511H840.982V739.091H846.636ZM842.63 736.477H844.306V746.875C844.306 747.348 844.375 747.704 844.512 747.94C844.654 748.172 844.834 748.329 845.052 748.409C845.275 748.485 845.509 748.523 845.755 748.523C845.94 748.523 846.091 748.513 846.21 748.494C846.328 748.471 846.423 748.452 846.494 748.438L846.835 749.943C846.721 749.986 846.562 750.028 846.359 750.071C846.155 750.118 845.897 750.142 845.585 750.142C845.111 750.142 844.647 750.04 844.193 749.837C843.743 749.633 843.369 749.323 843.07 748.906C842.777 748.49 842.63 747.964 842.63 747.33V736.477ZM853.614 750.227C852.563 750.227 851.656 749.995 850.894 749.531C850.136 749.062 849.551 748.409 849.139 747.571C848.732 746.728 848.529 745.748 848.529 744.631C848.529 743.513 848.732 742.528 849.139 741.676C849.551 740.819 850.124 740.152 850.858 739.673C851.597 739.19 852.459 738.949 853.443 738.949C854.012 738.949 854.573 739.044 855.127 739.233C855.681 739.422 856.185 739.73 856.639 740.156C857.094 740.578 857.456 741.136 857.726 741.832C857.996 742.528 858.131 743.385 858.131 744.403V745.114H849.722V743.665H856.426C856.426 743.049 856.303 742.5 856.057 742.017C855.816 741.534 855.47 741.153 855.02 740.874C854.575 740.594 854.049 740.455 853.443 740.455C852.776 740.455 852.198 740.62 851.71 740.952C851.227 741.278 850.856 741.705 850.595 742.23C850.335 742.756 850.205 743.319 850.205 743.92V744.886C850.205 745.71 850.347 746.409 850.631 746.982C850.92 747.55 851.32 747.983 851.831 748.281C852.343 748.575 852.937 748.722 853.614 748.722C854.054 748.722 854.452 748.66 854.807 748.537C855.167 748.409 855.477 748.22 855.737 747.969C855.998 747.713 856.199 747.396 856.341 747.017L857.96 747.472C857.79 748.021 857.503 748.504 857.101 748.92C856.699 749.332 856.201 749.654 855.61 749.886C855.018 750.114 854.352 750.227 853.614 750.227ZM869.516 750.256C868.825 750.256 868.197 750.125 867.634 749.865C867.07 749.6 866.623 749.219 866.291 748.722C865.96 748.22 865.794 747.614 865.794 746.903C865.794 746.278 865.917 745.772 866.164 745.384C866.41 744.991 866.739 744.683 867.151 744.46C867.563 744.238 868.017 744.072 868.514 743.963C869.016 743.849 869.521 743.759 870.027 743.693C870.69 743.608 871.227 743.544 871.639 743.501C872.056 743.454 872.359 743.376 872.548 743.267C872.743 743.158 872.84 742.969 872.84 742.699V742.642C872.84 741.941 872.648 741.397 872.264 741.009C871.886 740.62 871.31 740.426 870.539 740.426C869.738 740.426 869.111 740.601 868.656 740.952C868.202 741.302 867.882 741.676 867.698 742.074L866.107 741.506C866.391 740.843 866.77 740.327 867.243 739.957C867.721 739.583 868.242 739.323 868.806 739.176C869.374 739.025 869.932 738.949 870.482 738.949C870.832 738.949 871.235 738.991 871.689 739.077C872.148 739.157 872.591 739.325 873.017 739.581C873.448 739.837 873.806 740.223 874.09 740.739C874.374 741.255 874.516 741.946 874.516 742.812V750H872.84V748.523H872.754C872.641 748.759 872.451 749.013 872.186 749.283C871.921 749.553 871.568 749.782 871.128 749.972C870.688 750.161 870.15 750.256 869.516 750.256ZM869.771 748.75C870.434 748.75 870.993 748.62 871.448 748.359C871.907 748.099 872.253 747.763 872.485 747.351C872.721 746.939 872.84 746.506 872.84 746.051V744.517C872.769 744.602 872.612 744.68 872.371 744.751C872.134 744.818 871.86 744.877 871.547 744.929C871.239 744.976 870.939 745.019 870.645 745.057C870.356 745.09 870.122 745.118 869.942 745.142C869.506 745.199 869.099 745.291 868.72 745.419C868.346 745.542 868.043 745.729 867.811 745.98C867.584 746.226 867.47 746.562 867.47 746.989C867.47 747.571 867.686 748.011 868.117 748.31C868.552 748.603 869.104 748.75 869.771 748.75ZM884.876 743.438V750H883.2V739.091H884.819V740.795H884.961C885.217 740.241 885.605 739.796 886.126 739.46C886.647 739.119 887.319 738.949 888.143 738.949C888.882 738.949 889.528 739.1 890.082 739.403C890.636 739.702 891.067 740.156 891.375 740.767C891.683 741.373 891.836 742.14 891.836 743.068V750H890.16V743.182C890.16 742.325 889.938 741.657 889.493 741.179C889.048 740.696 888.437 740.455 887.66 740.455C887.125 740.455 886.647 740.571 886.226 740.803C885.809 741.035 885.48 741.373 885.238 741.818C884.997 742.263 884.876 742.803 884.876 743.438ZM899.473 750.227C898.422 750.227 897.515 749.995 896.753 749.531C895.995 749.062 895.411 748.409 894.999 747.571C894.592 746.728 894.388 745.748 894.388 744.631C894.388 743.513 894.592 742.528 894.999 741.676C895.411 740.819 895.984 740.152 896.718 739.673C897.456 739.19 898.318 738.949 899.303 738.949C899.871 738.949 900.432 739.044 900.986 739.233C901.54 739.422 902.044 739.73 902.499 740.156C902.953 740.578 903.316 741.136 903.585 741.832C903.855 742.528 903.99 743.385 903.99 744.403V745.114H895.581V743.665H902.286C902.286 743.049 902.163 742.5 901.916 742.017C901.675 741.534 901.329 741.153 900.879 740.874C900.434 740.594 899.909 740.455 899.303 740.455C898.635 740.455 898.057 740.62 897.57 740.952C897.087 741.278 896.715 741.705 896.455 742.23C896.194 742.756 896.064 743.319 896.064 743.92V744.886C896.064 745.71 896.206 746.409 896.49 746.982C896.779 747.55 897.179 747.983 897.691 748.281C898.202 748.575 898.796 748.722 899.473 748.722C899.914 748.722 900.311 748.66 900.666 748.537C901.026 748.409 901.336 748.22 901.597 747.969C901.857 747.713 902.058 747.396 902.2 747.017L903.82 747.472C903.649 748.021 903.363 748.504 902.96 748.92C902.558 749.332 902.061 749.654 901.469 749.886C900.877 750.114 900.212 750.227 899.473 750.227ZM909.012 750L905.688 739.091H907.449L909.807 747.443H909.921L912.25 739.091H914.04L916.341 747.415H916.455L918.813 739.091H920.574L917.25 750H915.602L913.216 741.619H913.046L910.659 750H909.012ZM928.415 739.091H930.091V750.795C930.091 751.468 929.975 752.05 929.743 752.543C929.516 753.035 929.17 753.416 928.706 753.686C928.247 753.956 927.667 754.091 926.966 754.091C926.909 754.091 926.852 754.091 926.796 754.091C926.739 754.091 926.682 754.091 926.625 754.091V752.528C926.682 752.528 926.734 752.528 926.781 752.528C926.829 752.528 926.881 752.528 926.938 752.528C927.449 752.528 927.823 752.377 928.06 752.074C928.297 751.776 928.415 751.349 928.415 750.795V739.091ZM929.239 737.273C928.912 737.273 928.63 737.161 928.394 736.939C928.162 736.716 928.046 736.449 928.046 736.136C928.046 735.824 928.162 735.556 928.394 735.334C928.63 735.111 928.912 735 929.239 735C929.566 735 929.845 735.111 930.077 735.334C930.314 735.556 930.432 735.824 930.432 736.136C930.432 736.449 930.314 736.716 930.077 736.939C929.845 737.161 929.566 737.273 929.239 737.273ZM937.593 750.227C936.608 750.227 935.744 749.993 935.001 749.524C934.262 749.055 933.684 748.4 933.268 747.557C932.856 746.714 932.65 745.729 932.65 744.602C932.65 743.466 932.856 742.474 933.268 741.626C933.684 740.779 934.262 740.121 935.001 739.652C935.744 739.183 936.608 738.949 937.593 738.949C938.578 738.949 939.439 739.183 940.178 739.652C940.921 740.121 941.499 740.779 941.911 741.626C942.328 742.474 942.536 743.466 942.536 744.602C942.536 745.729 942.328 746.714 941.911 747.557C941.499 748.4 940.921 749.055 940.178 749.524C939.439 749.993 938.578 750.227 937.593 750.227ZM937.593 748.722C938.341 748.722 938.956 748.53 939.439 748.146C939.922 747.763 940.28 747.259 940.512 746.634C940.744 746.009 940.86 745.331 940.86 744.602C940.86 743.873 940.744 743.194 940.512 742.564C940.28 741.934 939.922 741.425 939.439 741.037C938.956 740.649 938.341 740.455 937.593 740.455C936.845 740.455 936.229 740.649 935.746 741.037C935.263 741.425 934.906 741.934 934.674 742.564C934.442 743.194 934.326 743.873 934.326 744.602C934.326 745.331 934.442 746.009 934.674 746.634C934.906 747.259 935.263 747.763 935.746 748.146C936.229 748.53 936.845 748.722 937.593 748.722ZM951.97 745.54V739.091H953.646V750H951.97V748.153H951.856C951.6 748.707 951.203 749.179 950.663 749.567C950.123 749.95 949.441 750.142 948.617 750.142C947.936 750.142 947.329 749.993 946.799 749.695C946.269 749.392 945.852 748.937 945.549 748.331C945.246 747.72 945.095 746.951 945.095 746.023V739.091H946.771V745.909C946.771 746.705 946.993 747.339 947.438 747.812C947.888 748.286 948.461 748.523 949.157 748.523C949.574 748.523 949.998 748.416 950.428 748.203C950.864 747.99 951.229 747.663 951.522 747.223C951.82 746.783 951.97 746.222 951.97 745.54ZM956.716 750V739.091H958.335V740.739H958.449C958.648 740.199 959.007 739.761 959.528 739.425C960.049 739.089 960.636 738.92 961.29 738.92C961.413 738.92 961.567 738.923 961.751 738.928C961.936 738.932 962.076 738.939 962.17 738.949V740.653C962.113 740.639 961.983 740.618 961.78 740.589C961.581 740.556 961.37 740.54 961.148 740.54C960.617 740.54 960.144 740.651 959.727 740.874C959.315 741.091 958.988 741.394 958.747 741.783C958.51 742.166 958.392 742.604 958.392 743.097V750H956.716ZM965.833 743.438V750H964.157V739.091H965.776V740.795H965.919C966.174 740.241 966.562 739.796 967.083 739.46C967.604 739.119 968.276 738.949 969.1 738.949C969.839 738.949 970.485 739.1 971.039 739.403C971.593 739.702 972.024 740.156 972.332 740.767C972.64 741.373 972.794 742.14 972.794 743.068V750H971.117V743.182C971.117 742.325 970.895 741.657 970.45 741.179C970.005 740.696 969.394 740.455 968.617 740.455C968.082 740.455 967.604 740.571 967.183 740.803C966.766 741.035 966.437 741.373 966.195 741.818C965.954 742.263 965.833 742.803 965.833 743.438ZM979.067 750.256C978.375 750.256 977.748 750.125 977.184 749.865C976.621 749.6 976.174 749.219 975.842 748.722C975.511 748.22 975.345 747.614 975.345 746.903C975.345 746.278 975.468 745.772 975.714 745.384C975.961 744.991 976.29 744.683 976.702 744.46C977.113 744.238 977.568 744.072 978.065 743.963C978.567 743.849 979.071 743.759 979.578 743.693C980.241 743.608 980.778 743.544 981.19 743.501C981.607 743.454 981.91 743.376 982.099 743.267C982.293 743.158 982.39 742.969 982.39 742.699V742.642C982.39 741.941 982.199 741.397 981.815 741.009C981.436 740.62 980.861 740.426 980.089 740.426C979.289 740.426 978.662 740.601 978.207 740.952C977.753 741.302 977.433 741.676 977.248 742.074L975.657 741.506C975.942 740.843 976.32 740.327 976.794 739.957C977.272 739.583 977.793 739.323 978.356 739.176C978.925 739.025 979.483 738.949 980.032 738.949C980.383 738.949 980.785 738.991 981.24 739.077C981.699 739.157 982.142 739.325 982.568 739.581C982.999 739.837 983.356 740.223 983.64 740.739C983.925 741.255 984.067 741.946 984.067 742.812V750H982.39V748.523H982.305C982.192 748.759 982.002 749.013 981.737 749.283C981.472 749.553 981.119 749.782 980.679 749.972C980.238 750.161 979.701 750.256 979.067 750.256ZM979.322 748.75C979.985 748.75 980.544 748.62 980.998 748.359C981.458 748.099 981.803 747.763 982.035 747.351C982.272 746.939 982.39 746.506 982.39 746.051V744.517C982.319 744.602 982.163 744.68 981.922 744.751C981.685 744.818 981.41 744.877 981.098 744.929C980.79 744.976 980.489 745.019 980.196 745.057C979.907 745.09 979.673 745.118 979.493 745.142C979.057 745.199 978.65 745.291 978.271 745.419C977.897 745.542 977.594 745.729 977.362 745.98C977.135 746.226 977.021 746.562 977.021 746.989C977.021 747.571 977.237 748.011 977.667 748.31C978.103 748.603 978.655 748.75 979.322 748.75ZM988.802 735.455V750H987.126V735.455H988.802ZM802.852 774.227C801.801 774.227 800.894 773.995 800.132 773.531C799.374 773.062 798.79 772.409 798.378 771.571C797.97 770.728 797.767 769.748 797.767 768.631C797.767 767.513 797.97 766.528 798.378 765.676C798.79 764.819 799.363 764.152 800.096 763.673C800.835 763.19 801.697 762.949 802.682 762.949C803.25 762.949 803.811 763.044 804.365 763.233C804.919 763.422 805.423 763.73 805.878 764.156C806.332 764.578 806.694 765.136 806.964 765.832C807.234 766.528 807.369 767.385 807.369 768.403V769.114H798.96V767.665H805.665C805.665 767.049 805.541 766.5 805.295 766.017C805.054 765.534 804.708 765.153 804.258 764.874C803.813 764.594 803.288 764.455 802.682 764.455C802.014 764.455 801.436 764.62 800.949 764.952C800.466 765.278 800.094 765.705 799.834 766.23C799.573 766.756 799.443 767.319 799.443 767.92V768.886C799.443 769.71 799.585 770.409 799.869 770.982C800.158 771.55 800.558 771.983 801.069 772.281C801.581 772.575 802.175 772.722 802.852 772.722C803.292 772.722 803.69 772.66 804.045 772.537C804.405 772.409 804.715 772.22 804.976 771.969C805.236 771.713 805.437 771.396 805.579 771.017L807.199 771.472C807.028 772.021 806.742 772.504 806.339 772.92C805.937 773.332 805.44 773.654 804.848 773.886C804.256 774.114 803.591 774.227 802.852 774.227ZM811.595 767.438V774H809.919V763.091H811.538V764.795H811.68C811.936 764.241 812.324 763.796 812.845 763.46C813.366 763.119 814.038 762.949 814.862 762.949C815.601 762.949 816.247 763.1 816.801 763.403C817.355 763.702 817.786 764.156 818.094 764.767C818.401 765.373 818.555 766.14 818.555 767.068V774H816.879V767.182C816.879 766.325 816.657 765.657 816.211 765.179C815.766 764.696 815.156 764.455 814.379 764.455C813.844 764.455 813.366 764.571 812.944 764.803C812.528 765.035 812.199 765.373 811.957 765.818C811.716 766.263 811.595 766.803 811.595 767.438ZM826.362 763.091V764.511H820.709V763.091H826.362ZM822.357 760.477H824.033V770.875C824.033 771.348 824.102 771.704 824.239 771.94C824.381 772.172 824.561 772.329 824.779 772.409C825.001 772.485 825.235 772.523 825.482 772.523C825.666 772.523 825.818 772.513 825.936 772.494C826.055 772.471 826.149 772.452 826.22 772.438L826.561 773.943C826.448 773.986 826.289 774.028 826.085 774.071C825.882 774.118 825.624 774.142 825.311 774.142C824.838 774.142 824.374 774.04 823.919 773.837C823.469 773.633 823.095 773.323 822.797 772.906C822.503 772.49 822.357 771.964 822.357 771.33V760.477ZM828.884 774V763.091H830.503V764.739H830.617C830.816 764.199 831.175 763.761 831.696 763.425C832.217 763.089 832.804 762.92 833.458 762.92C833.581 762.92 833.735 762.923 833.919 762.928C834.104 762.932 834.244 762.939 834.338 762.949V764.653C834.281 764.639 834.151 764.618 833.948 764.589C833.749 764.556 833.538 764.54 833.316 764.54C832.785 764.54 832.312 764.651 831.895 764.874C831.483 765.091 831.156 765.394 830.915 765.783C830.678 766.166 830.56 766.604 830.56 767.097V774H828.884ZM837.737 778.091C837.453 778.091 837.199 778.067 836.977 778.02C836.754 777.977 836.6 777.935 836.515 777.892L836.941 776.415C837.348 776.519 837.708 776.557 838.021 776.528C838.333 776.5 838.61 776.36 838.852 776.109C839.098 775.863 839.323 775.463 839.526 774.909L839.839 774.057L835.805 763.091H837.623L840.634 771.784H840.748L843.759 763.091H845.578L840.947 775.591C840.739 776.154 840.481 776.621 840.173 776.99C839.865 777.364 839.508 777.641 839.1 777.821C838.698 778.001 838.243 778.091 837.737 778.091Z" fill="black"></path>
<rect x="554" y="116" width="386" height="100" stroke="#BFDBFE" stroke-width="4"></rect>
<line x1="189.989" y1="174" x2="551.989" y2="172" stroke="#BFDBFE" stroke-width="4"></line>
<path d="M679.263 162.091C679.178 161.371 678.832 160.812 678.226 160.415C677.62 160.017 676.876 159.818 675.996 159.818C675.352 159.818 674.788 159.922 674.305 160.131C673.827 160.339 673.453 160.625 673.183 160.99C672.918 161.355 672.786 161.769 672.786 162.233C672.786 162.621 672.878 162.955 673.062 163.234C673.252 163.509 673.493 163.739 673.787 163.923C674.08 164.103 674.388 164.252 674.71 164.371C675.032 164.484 675.328 164.577 675.598 164.648L677.075 165.045C677.454 165.145 677.875 165.282 678.339 165.457C678.808 165.633 679.256 165.872 679.682 166.175C680.113 166.473 680.468 166.857 680.747 167.325C681.027 167.794 681.166 168.369 681.166 169.051C681.166 169.837 680.96 170.547 680.548 171.182C680.141 171.816 679.545 172.321 678.759 172.695C677.977 173.069 677.028 173.256 675.911 173.256C674.869 173.256 673.967 173.088 673.205 172.751C672.447 172.415 671.85 171.946 671.415 171.345C670.984 170.744 670.74 170.045 670.683 169.25H672.501C672.549 169.799 672.733 170.254 673.055 170.614C673.382 170.969 673.794 171.234 674.291 171.409C674.793 171.58 675.333 171.665 675.911 171.665C676.583 171.665 677.187 171.556 677.722 171.338C678.257 171.116 678.68 170.808 678.993 170.415C679.305 170.017 679.462 169.553 679.462 169.023C679.462 168.54 679.327 168.147 679.057 167.844C678.787 167.541 678.432 167.295 677.991 167.105C677.551 166.916 677.075 166.75 676.564 166.608L674.774 166.097C673.638 165.77 672.738 165.304 672.075 164.697C671.412 164.091 671.081 163.298 671.081 162.318C671.081 161.504 671.301 160.794 671.741 160.188C672.187 159.577 672.783 159.103 673.531 158.767C674.284 158.426 675.125 158.256 676.053 158.256C676.99 158.256 677.823 158.424 678.553 158.76C679.282 159.091 679.859 159.546 680.286 160.124C680.716 160.701 680.944 161.357 680.967 162.091H679.263ZM688.409 173.227C687.358 173.227 686.451 172.995 685.689 172.531C684.931 172.062 684.346 171.409 683.934 170.571C683.527 169.728 683.324 168.748 683.324 167.631C683.324 166.513 683.527 165.528 683.934 164.676C684.346 163.819 684.919 163.152 685.653 162.673C686.392 162.19 687.253 161.949 688.238 161.949C688.806 161.949 689.368 162.044 689.922 162.233C690.475 162.422 690.98 162.73 691.434 163.156C691.889 163.578 692.251 164.136 692.521 164.832C692.791 165.528 692.926 166.385 692.926 167.403V168.114H684.517V166.665H691.221C691.221 166.049 691.098 165.5 690.852 165.017C690.61 164.534 690.265 164.153 689.815 163.874C689.37 163.594 688.844 163.455 688.238 163.455C687.571 163.455 686.993 163.62 686.505 163.952C686.022 164.278 685.651 164.705 685.39 165.23C685.13 165.756 685 166.319 685 166.92V167.886C685 168.71 685.142 169.409 685.426 169.982C685.715 170.55 686.115 170.983 686.626 171.281C687.137 171.575 687.732 171.722 688.409 171.722C688.849 171.722 689.247 171.66 689.602 171.537C689.962 171.409 690.272 171.22 690.532 170.969C690.793 170.713 690.994 170.396 691.136 170.017L692.755 170.472C692.585 171.021 692.298 171.504 691.896 171.92C691.493 172.332 690.996 172.654 690.404 172.886C689.813 173.114 689.147 173.227 688.409 173.227ZM700.049 173.227C698.998 173.227 698.092 172.995 697.329 172.531C696.572 172.062 695.987 171.409 695.575 170.571C695.168 169.728 694.964 168.748 694.964 167.631C694.964 166.513 695.168 165.528 695.575 164.676C695.987 163.819 696.56 163.152 697.294 162.673C698.032 162.19 698.894 161.949 699.879 161.949C700.447 161.949 701.008 162.044 701.562 162.233C702.116 162.422 702.62 162.73 703.075 163.156C703.529 163.578 703.892 164.136 704.162 164.832C704.431 165.528 704.566 166.385 704.566 167.403V168.114H696.157V166.665H702.862C702.862 166.049 702.739 165.5 702.493 165.017C702.251 164.534 701.905 164.153 701.456 163.874C701.011 163.594 700.485 163.455 699.879 163.455C699.211 163.455 698.634 163.62 698.146 163.952C697.663 164.278 697.291 164.705 697.031 165.23C696.77 165.756 696.64 166.319 696.64 166.92V167.886C696.64 168.71 696.782 169.409 697.066 169.982C697.355 170.55 697.755 170.983 698.267 171.281C698.778 171.575 699.372 171.722 700.049 171.722C700.49 171.722 700.887 171.66 701.243 171.537C701.602 171.409 701.913 171.22 702.173 170.969C702.433 170.713 702.635 170.396 702.777 170.017L704.396 170.472C704.225 171.021 703.939 171.504 703.537 171.92C703.134 172.332 702.637 172.654 702.045 172.886C701.453 173.114 700.788 173.227 700.049 173.227ZM713.821 177.091C713.537 177.091 713.283 177.067 713.061 177.02C712.838 176.977 712.684 176.935 712.599 176.892L713.025 175.415C713.432 175.519 713.792 175.557 714.105 175.528C714.417 175.5 714.694 175.36 714.936 175.109C715.182 174.863 715.407 174.463 715.61 173.909L715.923 173.057L711.889 162.091H713.707L716.718 170.784H716.832L719.843 162.091H721.662L717.031 174.591C716.823 175.154 716.565 175.621 716.257 175.99C715.949 176.364 715.592 176.641 715.184 176.821C714.782 177.001 714.327 177.091 713.821 177.091ZM727.915 173.227C726.93 173.227 726.066 172.993 725.323 172.524C724.584 172.055 724.007 171.4 723.59 170.557C723.178 169.714 722.972 168.729 722.972 167.602C722.972 166.466 723.178 165.474 723.59 164.626C724.007 163.779 724.584 163.121 725.323 162.652C726.066 162.183 726.93 161.949 727.915 161.949C728.9 161.949 729.762 162.183 730.5 162.652C731.244 163.121 731.821 163.779 732.233 164.626C732.65 165.474 732.858 166.466 732.858 167.602C732.858 168.729 732.65 169.714 732.233 170.557C731.821 171.4 731.244 172.055 730.5 172.524C729.762 172.993 728.9 173.227 727.915 173.227ZM727.915 171.722C728.663 171.722 729.279 171.53 729.762 171.146C730.245 170.763 730.602 170.259 730.834 169.634C731.066 169.009 731.182 168.331 731.182 167.602C731.182 166.873 731.066 166.194 730.834 165.564C730.602 164.934 730.245 164.425 729.762 164.037C729.279 163.649 728.663 163.455 727.915 163.455C727.167 163.455 726.551 163.649 726.069 164.037C725.586 164.425 725.228 164.934 724.996 165.564C724.764 166.194 724.648 166.873 724.648 167.602C724.648 168.331 724.764 169.009 724.996 169.634C725.228 170.259 725.586 170.763 726.069 171.146C726.551 171.53 727.167 171.722 727.915 171.722ZM742.292 168.54V162.091H743.968V173H742.292V171.153H742.178C741.923 171.707 741.525 172.179 740.985 172.567C740.445 172.95 739.763 173.142 738.94 173.142C738.258 173.142 737.652 172.993 737.121 172.695C736.591 172.392 736.174 171.937 735.871 171.331C735.568 170.72 735.417 169.951 735.417 169.023V162.091H737.093V168.909C737.093 169.705 737.316 170.339 737.761 170.812C738.21 171.286 738.783 171.523 739.479 171.523C739.896 171.523 740.32 171.416 740.751 171.203C741.186 170.99 741.551 170.663 741.844 170.223C742.143 169.783 742.292 169.222 742.292 168.54ZM747.038 173V162.091H748.657V163.739H748.771C748.97 163.199 749.33 162.761 749.85 162.425C750.371 162.089 750.958 161.92 751.612 161.92C751.735 161.92 751.889 161.923 752.074 161.928C752.258 161.932 752.398 161.939 752.493 161.949V163.653C752.436 163.639 752.306 163.618 752.102 163.589C751.903 163.556 751.692 163.54 751.47 163.54C750.94 163.54 750.466 163.651 750.049 163.874C749.637 164.091 749.311 164.394 749.069 164.783C748.833 165.166 748.714 165.604 748.714 166.097V173H747.038ZM764.678 173.227C763.627 173.227 762.72 172.995 761.958 172.531C761.201 172.062 760.616 171.409 760.204 170.571C759.797 169.728 759.593 168.748 759.593 167.631C759.593 166.513 759.797 165.528 760.204 164.676C760.616 163.819 761.189 163.152 761.923 162.673C762.661 162.19 763.523 161.949 764.508 161.949C765.076 161.949 765.637 162.044 766.191 162.233C766.745 162.422 767.249 162.73 767.704 163.156C768.158 163.578 768.521 164.136 768.79 164.832C769.06 165.528 769.195 166.385 769.195 167.403V168.114H760.786V166.665H767.491C767.491 166.049 767.368 165.5 767.121 165.017C766.88 164.534 766.534 164.153 766.085 163.874C765.639 163.594 765.114 163.455 764.508 163.455C763.84 163.455 763.263 163.62 762.775 163.952C762.292 164.278 761.92 164.705 761.66 165.23C761.399 165.756 761.269 166.319 761.269 166.92V167.886C761.269 168.71 761.411 169.409 761.695 169.982C761.984 170.55 762.384 170.983 762.896 171.281C763.407 171.575 764.001 171.722 764.678 171.722C765.119 171.722 765.516 171.66 765.871 171.537C766.231 171.409 766.541 171.22 766.802 170.969C767.062 170.713 767.263 170.396 767.406 170.017L769.025 170.472C768.854 171.021 768.568 171.504 768.165 171.92C767.763 172.332 767.266 172.654 766.674 172.886C766.082 173.114 765.417 173.227 764.678 173.227ZM773.421 166.438V173H771.745V162.091H773.364V163.795H773.506C773.762 163.241 774.15 162.796 774.671 162.46C775.192 162.119 775.864 161.949 776.688 161.949C777.427 161.949 778.073 162.1 778.627 162.403C779.181 162.702 779.612 163.156 779.92 163.767C780.228 164.373 780.381 165.14 780.381 166.068V173H778.705V166.182C778.705 165.325 778.483 164.657 778.038 164.179C777.593 163.696 776.982 163.455 776.205 163.455C775.67 163.455 775.192 163.571 774.771 163.803C774.354 164.035 774.025 164.373 773.783 164.818C773.542 165.263 773.421 165.803 773.421 166.438ZM788.189 162.091V163.511H782.535V162.091H788.189ZM784.183 159.477H785.859V169.875C785.859 170.348 785.928 170.704 786.065 170.94C786.207 171.172 786.387 171.329 786.605 171.409C786.827 171.485 787.062 171.523 787.308 171.523C787.493 171.523 787.644 171.513 787.762 171.494C787.881 171.471 787.975 171.452 788.047 171.438L788.387 172.943C788.274 172.986 788.115 173.028 787.912 173.071C787.708 173.118 787.45 173.142 787.137 173.142C786.664 173.142 786.2 173.04 785.745 172.837C785.296 172.633 784.922 172.323 784.623 171.906C784.33 171.49 784.183 170.964 784.183 170.33V159.477ZM790.71 173V162.091H792.329V163.739H792.443C792.642 163.199 793.002 162.761 793.522 162.425C794.043 162.089 794.63 161.92 795.284 161.92C795.407 161.92 795.561 161.923 795.745 161.928C795.93 161.932 796.07 161.939 796.164 161.949V163.653C796.108 163.639 795.977 163.618 795.774 163.589C795.575 163.556 795.364 163.54 795.142 163.54C794.611 163.54 794.138 163.651 793.721 163.874C793.309 164.091 792.983 164.394 792.741 164.783C792.504 165.166 792.386 165.604 792.386 166.097V173H790.71ZM798.151 173V162.091H799.827V173H798.151ZM799.004 160.273C798.677 160.273 798.395 160.161 798.158 159.939C797.926 159.716 797.81 159.449 797.81 159.136C797.81 158.824 797.926 158.556 798.158 158.334C798.395 158.111 798.677 158 799.004 158C799.33 158 799.61 158.111 799.842 158.334C800.078 158.556 800.197 158.824 800.197 159.136C800.197 159.449 800.078 159.716 799.842 159.939C799.61 160.161 799.33 160.273 799.004 160.273ZM807.471 173.227C806.42 173.227 805.513 172.995 804.751 172.531C803.993 172.062 803.409 171.409 802.997 170.571C802.59 169.728 802.386 168.748 802.386 167.631C802.386 166.513 802.59 165.528 802.997 164.676C803.409 163.819 803.982 163.152 804.716 162.673C805.454 162.19 806.316 161.949 807.301 161.949C807.869 161.949 808.43 162.044 808.984 162.233C809.538 162.422 810.042 162.73 810.497 163.156C810.951 163.578 811.314 164.136 811.583 164.832C811.853 165.528 811.988 166.385 811.988 167.403V168.114H803.579V166.665H810.284C810.284 166.049 810.161 165.5 809.914 165.017C809.673 164.534 809.327 164.153 808.877 163.874C808.432 163.594 807.907 163.455 807.301 163.455C806.633 163.455 806.056 163.62 805.568 163.952C805.085 164.278 804.713 164.705 804.453 165.23C804.192 165.756 804.062 166.319 804.062 166.92V167.886C804.062 168.71 804.204 169.409 804.488 169.982C804.777 170.55 805.177 170.983 805.689 171.281C806.2 171.575 806.794 171.722 807.471 171.722C807.912 171.722 808.309 171.66 808.664 171.537C809.024 171.409 809.334 171.22 809.595 170.969C809.855 170.713 810.056 170.396 810.199 170.017L811.818 170.472C811.647 171.021 811.361 171.504 810.958 171.92C810.556 172.332 810.059 172.654 809.467 172.886C808.875 173.114 808.21 173.227 807.471 173.227ZM822.265 164.534L820.76 164.96C820.665 164.709 820.525 164.465 820.341 164.229C820.161 163.987 819.914 163.788 819.602 163.632C819.289 163.476 818.889 163.398 818.402 163.398C817.734 163.398 817.178 163.552 816.733 163.859C816.292 164.162 816.072 164.548 816.072 165.017C816.072 165.434 816.224 165.763 816.527 166.004C816.83 166.246 817.303 166.447 817.947 166.608L819.566 167.006C820.542 167.242 821.269 167.605 821.747 168.092C822.225 168.575 822.464 169.198 822.464 169.96C822.464 170.585 822.284 171.144 821.924 171.636C821.569 172.129 821.072 172.517 820.433 172.801C819.794 173.085 819.05 173.227 818.203 173.227C817.09 173.227 816.169 172.986 815.44 172.503C814.711 172.02 814.249 171.314 814.055 170.386L815.646 169.989C815.797 170.576 816.084 171.016 816.505 171.31C816.931 171.603 817.488 171.75 818.174 171.75C818.956 171.75 819.576 171.584 820.035 171.253C820.499 170.917 820.731 170.514 820.731 170.045C820.731 169.667 820.599 169.349 820.333 169.094C820.068 168.833 819.661 168.639 819.112 168.511L817.294 168.085C816.295 167.848 815.561 167.482 815.092 166.984C814.628 166.482 814.396 165.855 814.396 165.102C814.396 164.487 814.569 163.942 814.914 163.469C815.265 162.995 815.741 162.624 816.342 162.354C816.948 162.084 817.635 161.949 818.402 161.949C819.481 161.949 820.329 162.186 820.944 162.659C821.565 163.133 822.005 163.758 822.265 164.534Z" fill="black"></path>
<rect x="1248" y="621" width="386" height="100" stroke="#BFDBFE" stroke-width="4"></rect>
<path d="M1281.87 667.091C1281.78 666.371 1281.44 665.812 1280.83 665.415C1280.22 665.017 1279.48 664.818 1278.6 664.818C1277.96 664.818 1277.39 664.922 1276.91 665.131C1276.43 665.339 1276.06 665.625 1275.79 665.99C1275.52 666.355 1275.39 666.769 1275.39 667.233C1275.39 667.621 1275.48 667.955 1275.67 668.234C1275.86 668.509 1276.1 668.739 1276.39 668.923C1276.68 669.103 1276.99 669.252 1277.31 669.371C1277.64 669.484 1277.93 669.577 1278.2 669.648L1279.68 670.045C1280.06 670.145 1280.48 670.282 1280.94 670.457C1281.41 670.633 1281.86 670.872 1282.29 671.175C1282.72 671.473 1283.07 671.857 1283.35 672.325C1283.63 672.794 1283.77 673.369 1283.77 674.051C1283.77 674.837 1283.56 675.547 1283.15 676.182C1282.74 676.816 1282.15 677.321 1281.36 677.695C1280.58 678.069 1279.63 678.256 1278.51 678.256C1277.47 678.256 1276.57 678.088 1275.81 677.751C1275.05 677.415 1274.45 676.946 1274.02 676.345C1273.59 675.744 1273.34 675.045 1273.29 674.25H1275.1C1275.15 674.799 1275.34 675.254 1275.66 675.614C1275.99 675.969 1276.4 676.234 1276.89 676.409C1277.4 676.58 1277.94 676.665 1278.51 676.665C1279.19 676.665 1279.79 676.556 1280.33 676.338C1280.86 676.116 1281.28 675.808 1281.6 675.415C1281.91 675.017 1282.07 674.553 1282.07 674.023C1282.07 673.54 1281.93 673.147 1281.66 672.844C1281.39 672.541 1281.04 672.295 1280.59 672.105C1280.15 671.916 1279.68 671.75 1279.17 671.608L1277.38 671.097C1276.24 670.77 1275.34 670.304 1274.68 669.697C1274.02 669.091 1273.68 668.298 1273.68 667.318C1273.68 666.504 1273.9 665.794 1274.34 665.188C1274.79 664.577 1275.39 664.103 1276.13 663.767C1276.89 663.426 1277.73 663.256 1278.66 663.256C1279.59 663.256 1280.43 663.424 1281.16 663.76C1281.89 664.091 1282.46 664.546 1282.89 665.124C1283.32 665.701 1283.55 666.357 1283.57 667.091H1281.87ZM1286.44 678V667.091H1288.11V678H1286.44ZM1287.29 665.273C1286.96 665.273 1286.68 665.161 1286.45 664.939C1286.21 664.716 1286.1 664.449 1286.1 664.136C1286.1 663.824 1286.21 663.556 1286.45 663.334C1286.68 663.111 1286.96 663 1287.29 663C1287.62 663 1287.9 663.111 1288.13 663.334C1288.37 663.556 1288.48 663.824 1288.48 664.136C1288.48 664.449 1288.37 664.716 1288.13 664.939C1287.9 665.161 1287.62 665.273 1287.29 665.273ZM1291.18 678V667.091H1292.8V668.795H1292.95C1293.17 668.213 1293.54 667.761 1294.05 667.439C1294.55 667.112 1295.16 666.949 1295.87 666.949C1296.59 666.949 1297.19 667.112 1297.67 667.439C1298.15 667.761 1298.53 668.213 1298.8 668.795H1298.91C1299.19 668.232 1299.61 667.785 1300.17 667.453C1300.73 667.117 1301.4 666.949 1302.18 666.949C1303.15 666.949 1303.95 667.254 1304.57 667.865C1305.19 668.471 1305.5 669.416 1305.5 670.699V678H1303.83V670.699C1303.83 669.894 1303.61 669.319 1303.17 668.973C1302.73 668.627 1302.21 668.455 1301.61 668.455C1300.84 668.455 1300.25 668.687 1299.83 669.151C1299.41 669.61 1299.2 670.192 1299.2 670.898V678H1297.49V670.528C1297.49 669.908 1297.29 669.409 1296.89 669.03C1296.49 668.646 1295.97 668.455 1295.33 668.455C1294.9 668.455 1294.49 668.571 1294.11 668.803C1293.74 669.035 1293.43 669.357 1293.2 669.768C1292.97 670.176 1292.86 670.647 1292.86 671.182V678H1291.18ZM1308.57 682.091V667.091H1310.19V668.824H1310.39C1310.51 668.634 1310.68 668.393 1310.9 668.099C1311.12 667.801 1311.44 667.536 1311.85 667.304C1312.27 667.067 1312.83 666.949 1313.54 666.949C1314.46 666.949 1315.27 667.179 1315.97 667.638C1316.67 668.097 1317.22 668.748 1317.61 669.591C1318 670.434 1318.2 671.428 1318.2 672.574C1318.2 673.729 1318 674.731 1317.61 675.578C1317.22 676.421 1316.67 677.074 1315.97 677.538C1315.28 677.998 1314.48 678.227 1313.57 678.227C1312.87 678.227 1312.31 678.111 1311.88 677.879C1311.46 677.643 1311.14 677.375 1310.91 677.077C1310.68 676.774 1310.51 676.523 1310.39 676.324H1310.24V682.091H1308.57ZM1310.22 672.545C1310.22 673.369 1310.34 674.096 1310.58 674.726C1310.82 675.351 1311.17 675.841 1311.64 676.196C1312.1 676.546 1312.67 676.722 1313.34 676.722C1314.04 676.722 1314.63 676.537 1315.09 676.168C1315.57 675.794 1315.92 675.292 1316.16 674.662C1316.4 674.027 1316.52 673.322 1316.52 672.545C1316.52 671.778 1316.4 671.087 1316.17 670.472C1315.93 669.851 1315.58 669.361 1315.11 669.001C1314.64 668.637 1314.05 668.455 1313.34 668.455C1312.66 668.455 1312.09 668.627 1311.62 668.973C1311.16 669.314 1310.81 669.792 1310.57 670.408C1310.33 671.018 1310.22 671.731 1310.22 672.545ZM1322.43 663.455V678H1320.75V663.455H1322.43ZM1326.58 682.091C1326.3 682.091 1326.04 682.067 1325.82 682.02C1325.6 681.977 1325.44 681.935 1325.36 681.892L1325.78 680.415C1326.19 680.519 1326.55 680.557 1326.86 680.528C1327.18 680.5 1327.45 680.36 1327.7 680.109C1327.94 679.863 1328.17 679.463 1328.37 678.909L1328.68 678.057L1324.65 667.091H1326.47L1329.48 675.784H1329.59L1332.6 667.091H1334.42L1329.79 679.591C1329.58 680.154 1329.32 680.621 1329.02 680.99C1328.71 681.364 1328.35 681.641 1327.94 681.821C1327.54 682.001 1327.09 682.091 1326.58 682.091ZM1346.69 678.227C1345.67 678.227 1344.79 677.986 1344.05 677.503C1343.31 677.02 1342.74 676.355 1342.34 675.507C1341.95 674.66 1341.75 673.691 1341.75 672.602C1341.75 671.494 1341.95 670.517 1342.36 669.669C1342.77 668.817 1343.34 668.152 1344.08 667.673C1344.82 667.19 1345.68 666.949 1346.66 666.949C1347.43 666.949 1348.12 667.091 1348.74 667.375C1349.35 667.659 1349.86 668.057 1350.25 668.568C1350.64 669.08 1350.89 669.676 1350.98 670.358H1349.3C1349.18 669.861 1348.89 669.42 1348.45 669.037C1348.02 668.649 1347.43 668.455 1346.69 668.455C1346.04 668.455 1345.46 668.625 1344.97 668.966C1344.48 669.302 1344.1 669.778 1343.83 670.393C1343.56 671.004 1343.42 671.722 1343.42 672.545C1343.42 673.388 1343.56 674.122 1343.82 674.747C1344.09 675.372 1344.47 675.857 1344.96 676.203C1345.45 676.549 1346.03 676.722 1346.69 676.722C1347.13 676.722 1347.52 676.646 1347.88 676.494C1348.23 676.343 1348.53 676.125 1348.78 675.841C1349.02 675.557 1349.2 675.216 1349.3 674.818H1350.98C1350.89 675.462 1350.65 676.042 1350.28 676.558C1349.91 677.07 1349.42 677.477 1348.81 677.78C1348.2 678.078 1347.5 678.227 1346.69 678.227ZM1353.43 678V667.091H1355.05V668.739H1355.16C1355.36 668.199 1355.72 667.761 1356.24 667.425C1356.76 667.089 1357.35 666.92 1358 666.92C1358.13 666.92 1358.28 666.923 1358.47 666.928C1358.65 666.932 1358.79 666.939 1358.89 666.949V668.653C1358.83 668.639 1358.7 668.618 1358.49 668.589C1358.3 668.556 1358.08 668.54 1357.86 668.54C1357.33 668.54 1356.86 668.651 1356.44 668.874C1356.03 669.091 1355.7 669.394 1355.46 669.783C1355.23 670.166 1355.11 670.604 1355.11 671.097V678H1353.43ZM1365.11 678.227C1364.06 678.227 1363.16 677.995 1362.39 677.531C1361.64 677.062 1361.05 676.409 1360.64 675.571C1360.23 674.728 1360.03 673.748 1360.03 672.631C1360.03 671.513 1360.23 670.528 1360.64 669.676C1361.05 668.819 1361.62 668.152 1362.36 667.673C1363.1 667.19 1363.96 666.949 1364.94 666.949C1365.51 666.949 1366.07 667.044 1366.63 667.233C1367.18 667.422 1367.68 667.73 1368.14 668.156C1368.59 668.578 1368.96 669.136 1369.23 669.832C1369.5 670.528 1369.63 671.385 1369.63 672.403V673.114H1361.22V671.665H1367.93C1367.93 671.049 1367.8 670.5 1367.56 670.017C1367.32 669.534 1366.97 669.153 1366.52 668.874C1366.07 668.594 1365.55 668.455 1364.94 668.455C1364.28 668.455 1363.7 668.62 1363.21 668.952C1362.73 669.278 1362.36 669.705 1362.1 670.23C1361.83 670.756 1361.7 671.319 1361.7 671.92V672.886C1361.7 673.71 1361.85 674.409 1362.13 674.982C1362.42 675.55 1362.82 675.983 1363.33 676.281C1363.84 676.575 1364.44 676.722 1365.11 676.722C1365.55 676.722 1365.95 676.66 1366.31 676.537C1366.67 676.409 1366.98 676.22 1367.24 675.969C1367.5 675.713 1367.7 675.396 1367.84 675.017L1369.46 675.472C1369.29 676.021 1369 676.504 1368.6 676.92C1368.2 677.332 1367.7 677.654 1367.11 677.886C1366.52 678.114 1365.85 678.227 1365.11 678.227ZM1375.39 678.256C1374.7 678.256 1374.07 678.125 1373.51 677.865C1372.95 677.6 1372.5 677.219 1372.17 676.722C1371.83 676.22 1371.67 675.614 1371.67 674.903C1371.67 674.278 1371.79 673.772 1372.04 673.384C1372.28 672.991 1372.61 672.683 1373.03 672.46C1373.44 672.238 1373.89 672.072 1374.39 671.963C1374.89 671.849 1375.4 671.759 1375.9 671.693C1376.57 671.608 1377.1 671.544 1377.51 671.501C1377.93 671.454 1378.23 671.376 1378.42 671.267C1378.62 671.158 1378.71 670.969 1378.71 670.699V670.642C1378.71 669.941 1378.52 669.397 1378.14 669.009C1377.76 668.62 1377.19 668.426 1376.41 668.426C1375.61 668.426 1374.99 668.601 1374.53 668.952C1374.08 669.302 1373.76 669.676 1373.57 670.074L1371.98 669.506C1372.27 668.843 1372.64 668.327 1373.12 667.957C1373.6 667.583 1374.12 667.323 1374.68 667.176C1375.25 667.025 1375.81 666.949 1376.36 666.949C1376.71 666.949 1377.11 666.991 1377.56 667.077C1378.02 667.157 1378.47 667.325 1378.89 667.581C1379.32 667.837 1379.68 668.223 1379.96 668.739C1380.25 669.255 1380.39 669.946 1380.39 670.812V678H1378.71V676.523H1378.63C1378.52 676.759 1378.33 677.013 1378.06 677.283C1377.8 677.553 1377.44 677.782 1377 677.972C1376.56 678.161 1376.03 678.256 1375.39 678.256ZM1375.65 676.75C1376.31 676.75 1376.87 676.62 1377.32 676.359C1377.78 676.099 1378.13 675.763 1378.36 675.351C1378.6 674.939 1378.71 674.506 1378.71 674.051V672.517C1378.64 672.602 1378.49 672.68 1378.25 672.751C1378.01 672.818 1377.73 672.877 1377.42 672.929C1377.11 672.976 1376.81 673.019 1376.52 673.057C1376.23 673.09 1376 673.118 1375.82 673.142C1375.38 673.199 1374.97 673.291 1374.6 673.419C1374.22 673.542 1373.92 673.729 1373.69 673.98C1373.46 674.226 1373.35 674.562 1373.35 674.989C1373.35 675.571 1373.56 676.011 1373.99 676.31C1374.43 676.603 1374.98 676.75 1375.65 676.75ZM1388.19 667.091V668.511H1382.54V667.091H1388.19ZM1384.19 664.477H1385.86V674.875C1385.86 675.348 1385.93 675.704 1386.07 675.94C1386.21 676.172 1386.39 676.329 1386.61 676.409C1386.83 676.485 1387.07 676.523 1387.31 676.523C1387.5 676.523 1387.65 676.513 1387.77 676.494C1387.89 676.471 1387.98 676.452 1388.05 676.438L1388.39 677.943C1388.28 677.986 1388.12 678.028 1387.92 678.071C1387.71 678.118 1387.46 678.142 1387.14 678.142C1386.67 678.142 1386.21 678.04 1385.75 677.837C1385.3 677.633 1384.93 677.323 1384.63 676.906C1384.34 676.49 1384.19 675.964 1384.19 675.33V664.477ZM1395.17 678.227C1394.12 678.227 1393.21 677.995 1392.45 677.531C1391.69 677.062 1391.11 676.409 1390.7 675.571C1390.29 674.728 1390.09 673.748 1390.09 672.631C1390.09 671.513 1390.29 670.528 1390.7 669.676C1391.11 668.819 1391.68 668.152 1392.42 667.673C1393.16 667.19 1394.02 666.949 1395 666.949C1395.57 666.949 1396.13 667.044 1396.69 667.233C1397.24 667.422 1397.74 667.73 1398.2 668.156C1398.65 668.578 1399.01 669.136 1399.28 669.832C1399.55 670.528 1399.69 671.385 1399.69 672.403V673.114H1391.28V671.665H1397.98C1397.98 671.049 1397.86 670.5 1397.62 670.017C1397.37 669.534 1397.03 669.153 1396.58 668.874C1396.13 668.594 1395.61 668.455 1395 668.455C1394.33 668.455 1393.76 668.62 1393.27 668.952C1392.79 669.278 1392.41 669.705 1392.15 670.23C1391.89 670.756 1391.76 671.319 1391.76 671.92V672.886C1391.76 673.71 1391.91 674.409 1392.19 674.982C1392.48 675.55 1392.88 675.983 1393.39 676.281C1393.9 676.575 1394.5 676.722 1395.17 676.722C1395.61 676.722 1396.01 676.66 1396.37 676.537C1396.73 676.409 1397.04 676.22 1397.3 675.969C1397.56 675.713 1397.76 675.396 1397.9 675.017L1399.52 675.472C1399.35 676.021 1399.06 676.504 1398.66 676.92C1398.26 677.332 1397.76 677.654 1397.17 677.886C1396.58 678.114 1395.91 678.227 1395.17 678.227ZM1411.07 678.256C1410.38 678.256 1409.76 678.125 1409.19 677.865C1408.63 677.6 1408.18 677.219 1407.85 676.722C1407.52 676.22 1407.35 675.614 1407.35 674.903C1407.35 674.278 1407.48 673.772 1407.72 673.384C1407.97 672.991 1408.3 672.683 1408.71 672.46C1409.12 672.238 1409.58 672.072 1410.07 671.963C1410.57 671.849 1411.08 671.759 1411.59 671.693C1412.25 671.608 1412.79 671.544 1413.2 671.501C1413.61 671.454 1413.92 671.376 1414.11 671.267C1414.3 671.158 1414.4 670.969 1414.4 670.699V670.642C1414.4 669.941 1414.21 669.397 1413.82 669.009C1413.44 668.62 1412.87 668.426 1412.1 668.426C1411.3 668.426 1410.67 668.601 1410.22 668.952C1409.76 669.302 1409.44 669.676 1409.26 670.074L1407.67 669.506C1407.95 668.843 1408.33 668.327 1408.8 667.957C1409.28 667.583 1409.8 667.323 1410.36 667.176C1410.93 667.025 1411.49 666.949 1412.04 666.949C1412.39 666.949 1412.79 666.991 1413.25 667.077C1413.71 667.157 1414.15 667.325 1414.58 667.581C1415.01 667.837 1415.36 668.223 1415.65 668.739C1415.93 669.255 1416.07 669.946 1416.07 670.812V678H1414.4V676.523H1414.31C1414.2 676.759 1414.01 677.013 1413.74 677.283C1413.48 677.553 1413.13 677.782 1412.69 677.972C1412.25 678.161 1411.71 678.256 1411.07 678.256ZM1411.33 676.75C1411.99 676.75 1412.55 676.62 1413.01 676.359C1413.47 676.099 1413.81 675.763 1414.04 675.351C1414.28 674.939 1414.4 674.506 1414.4 674.051V672.517C1414.33 672.602 1414.17 672.68 1413.93 672.751C1413.69 672.818 1413.42 672.877 1413.11 672.929C1412.8 672.976 1412.5 673.019 1412.2 673.057C1411.91 673.09 1411.68 673.118 1411.5 673.142C1411.06 673.199 1410.66 673.291 1410.28 673.419C1409.9 673.542 1409.6 673.729 1409.37 673.98C1409.14 674.226 1409.03 674.562 1409.03 674.989C1409.03 675.571 1409.24 676.011 1409.68 676.31C1410.11 676.603 1410.66 676.75 1411.33 676.75ZM1426.43 671.438V678H1424.76V667.091H1426.38V668.795H1426.52C1426.78 668.241 1427.16 667.796 1427.68 667.46C1428.21 667.119 1428.88 666.949 1429.7 666.949C1430.44 666.949 1431.09 667.1 1431.64 667.403C1432.19 667.702 1432.63 668.156 1432.93 668.767C1433.24 669.373 1433.4 670.14 1433.4 671.068V678H1431.72V671.182C1431.72 670.325 1431.5 669.657 1431.05 669.179C1430.61 668.696 1430 668.455 1429.22 668.455C1428.68 668.455 1428.21 668.571 1427.78 668.803C1427.37 669.035 1427.04 669.373 1426.8 669.818C1426.56 670.263 1426.43 670.803 1426.43 671.438ZM1441.03 678.227C1439.98 678.227 1439.07 677.995 1438.31 677.531C1437.55 677.062 1436.97 676.409 1436.56 675.571C1436.15 674.728 1435.95 673.748 1435.95 672.631C1435.95 671.513 1436.15 670.528 1436.56 669.676C1436.97 668.819 1437.54 668.152 1438.28 667.673C1439.01 667.19 1439.88 666.949 1440.86 666.949C1441.43 666.949 1441.99 667.044 1442.54 667.233C1443.1 667.422 1443.6 667.73 1444.06 668.156C1444.51 668.578 1444.87 669.136 1445.14 669.832C1445.41 670.528 1445.55 671.385 1445.55 672.403V673.114H1437.14V671.665H1443.84C1443.84 671.049 1443.72 670.5 1443.47 670.017C1443.23 669.534 1442.89 669.153 1442.44 668.874C1441.99 668.594 1441.47 668.455 1440.86 668.455C1440.19 668.455 1439.62 668.62 1439.13 668.952C1438.65 669.278 1438.27 669.705 1438.01 670.23C1437.75 670.756 1437.62 671.319 1437.62 671.92V672.886C1437.62 673.71 1437.76 674.409 1438.05 674.982C1438.34 675.55 1438.74 675.983 1439.25 676.281C1439.76 676.575 1440.35 676.722 1441.03 676.722C1441.47 676.722 1441.87 676.66 1442.22 676.537C1442.58 676.409 1442.89 676.22 1443.16 675.969C1443.42 675.713 1443.62 675.396 1443.76 675.017L1445.38 675.472C1445.21 676.021 1444.92 676.504 1444.52 676.92C1444.12 677.332 1443.62 677.654 1443.03 677.886C1442.44 678.114 1441.77 678.227 1441.03 678.227ZM1450.57 678L1447.25 667.091H1449.01L1451.37 675.443H1451.48L1453.81 667.091H1455.6L1457.9 675.415H1458.01L1460.37 667.091H1462.13L1458.81 678H1457.16L1454.77 669.619H1454.6L1452.22 678H1450.57ZM1474.55 678.227C1473.5 678.227 1472.59 677.995 1471.83 677.531C1471.07 677.062 1470.48 676.409 1470.07 675.571C1469.67 674.728 1469.46 673.748 1469.46 672.631C1469.46 671.513 1469.67 670.528 1470.07 669.676C1470.48 668.819 1471.06 668.152 1471.79 667.673C1472.53 667.19 1473.39 666.949 1474.38 666.949C1474.95 666.949 1475.51 667.044 1476.06 667.233C1476.61 667.422 1477.12 667.73 1477.57 668.156C1478.03 668.578 1478.39 669.136 1478.66 669.832C1478.93 670.528 1479.06 671.385 1479.06 672.403V673.114H1470.66V671.665H1477.36C1477.36 671.049 1477.24 670.5 1476.99 670.017C1476.75 669.534 1476.4 669.153 1475.95 668.874C1475.51 668.594 1474.98 668.455 1474.38 668.455C1473.71 668.455 1473.13 668.62 1472.64 668.952C1472.16 669.278 1471.79 669.705 1471.53 670.23C1471.27 670.756 1471.14 671.319 1471.14 671.92V672.886C1471.14 673.71 1471.28 674.409 1471.56 674.982C1471.85 675.55 1472.25 675.983 1472.76 676.281C1473.28 676.575 1473.87 676.722 1474.55 676.722C1474.99 676.722 1475.39 676.66 1475.74 676.537C1476.1 676.409 1476.41 676.22 1476.67 675.969C1476.93 675.713 1477.13 675.396 1477.27 675.017L1478.89 675.472C1478.72 676.021 1478.44 676.504 1478.03 676.92C1477.63 677.332 1477.14 677.654 1476.54 677.886C1475.95 678.114 1475.29 678.227 1474.55 678.227ZM1483.29 671.438V678H1481.61V667.091H1483.23V668.795H1483.38C1483.63 668.241 1484.02 667.796 1484.54 667.46C1485.06 667.119 1485.73 666.949 1486.56 666.949C1487.3 666.949 1487.94 667.1 1488.5 667.403C1489.05 667.702 1489.48 668.156 1489.79 668.767C1490.1 669.373 1490.25 670.14 1490.25 671.068V678H1488.57V671.182C1488.57 670.325 1488.35 669.657 1487.91 669.179C1487.46 668.696 1486.85 668.455 1486.07 668.455C1485.54 668.455 1485.06 668.571 1484.64 668.803C1484.22 669.035 1483.89 669.373 1483.65 669.818C1483.41 670.263 1483.29 670.803 1483.29 671.438ZM1498.06 667.091V668.511H1492.4V667.091H1498.06ZM1494.05 664.477H1495.73V674.875C1495.73 675.348 1495.8 675.704 1495.93 675.94C1496.08 676.172 1496.26 676.329 1496.47 676.409C1496.7 676.485 1496.93 676.523 1497.18 676.523C1497.36 676.523 1497.51 676.513 1497.63 676.494C1497.75 676.471 1497.84 676.452 1497.92 676.438L1498.26 677.943C1498.14 677.986 1497.98 678.028 1497.78 678.071C1497.58 678.118 1497.32 678.142 1497.01 678.142C1496.53 678.142 1496.07 678.04 1495.61 677.837C1495.16 677.633 1494.79 677.323 1494.49 676.906C1494.2 676.49 1494.05 675.964 1494.05 675.33V664.477ZM1500.58 678V667.091H1502.2V668.739H1502.31C1502.51 668.199 1502.87 667.761 1503.39 667.425C1503.91 667.089 1504.5 666.92 1505.15 666.92C1505.28 666.92 1505.43 666.923 1505.61 666.928C1505.8 666.932 1505.94 666.939 1506.03 666.949V668.653C1505.98 668.639 1505.85 668.618 1505.64 668.589C1505.44 668.556 1505.23 668.54 1505.01 668.54C1504.48 668.54 1504.01 668.651 1503.59 668.874C1503.18 669.091 1502.85 669.394 1502.61 669.783C1502.37 670.166 1502.26 670.604 1502.26 671.097V678H1500.58ZM1509.43 682.091C1509.15 682.091 1508.89 682.067 1508.67 682.02C1508.45 681.977 1508.3 681.935 1508.21 681.892L1508.64 680.415C1509.04 680.519 1509.4 680.557 1509.72 680.528C1510.03 680.5 1510.31 680.36 1510.55 680.109C1510.79 679.863 1511.02 679.463 1511.22 678.909L1511.53 678.057L1507.5 667.091H1509.32L1512.33 675.784H1512.44L1515.45 667.091H1517.27L1512.64 679.591C1512.43 680.154 1512.18 680.621 1511.87 680.99C1511.56 681.364 1511.2 681.641 1510.8 681.821C1510.39 682.001 1509.94 682.091 1509.43 682.091ZM1529.97 667.091V668.511H1524.09V667.091H1529.97ZM1525.85 678V665.585C1525.85 664.96 1526 664.439 1526.29 664.023C1526.58 663.606 1526.96 663.294 1527.43 663.085C1527.9 662.877 1528.4 662.773 1528.92 662.773C1529.33 662.773 1529.67 662.806 1529.93 662.872C1530.19 662.938 1530.38 663 1530.51 663.057L1530.03 664.506C1529.94 664.477 1529.82 664.442 1529.67 664.399C1529.52 664.357 1529.33 664.335 1529.09 664.335C1528.53 664.335 1528.13 664.475 1527.89 664.754C1527.65 665.034 1527.53 665.443 1527.53 665.983V678H1525.85ZM1536.3 678.227C1535.32 678.227 1534.45 677.993 1533.71 677.524C1532.97 677.055 1532.39 676.4 1531.97 675.557C1531.56 674.714 1531.36 673.729 1531.36 672.602C1531.36 671.466 1531.56 670.474 1531.97 669.626C1532.39 668.779 1532.97 668.121 1533.71 667.652C1534.45 667.183 1535.32 666.949 1536.3 666.949C1537.28 666.949 1538.15 667.183 1538.89 667.652C1539.63 668.121 1540.21 668.779 1540.62 669.626C1541.03 670.474 1541.24 671.466 1541.24 672.602C1541.24 673.729 1541.03 674.714 1540.62 675.557C1540.21 676.4 1539.63 677.055 1538.89 677.524C1538.15 677.993 1537.28 678.227 1536.3 678.227ZM1536.3 676.722C1537.05 676.722 1537.66 676.53 1538.15 676.146C1538.63 675.763 1538.99 675.259 1539.22 674.634C1539.45 674.009 1539.57 673.331 1539.57 672.602C1539.57 671.873 1539.45 671.194 1539.22 670.564C1538.99 669.934 1538.63 669.425 1538.15 669.037C1537.66 668.649 1537.05 668.455 1536.3 668.455C1535.55 668.455 1534.94 668.649 1534.45 669.037C1533.97 669.425 1533.61 669.934 1533.38 670.564C1533.15 671.194 1533.03 671.873 1533.03 672.602C1533.03 673.331 1533.15 674.009 1533.38 674.634C1533.61 675.259 1533.97 675.763 1534.45 676.146C1534.94 676.53 1535.55 676.722 1536.3 676.722ZM1543.8 678V667.091H1545.42V668.739H1545.53C1545.73 668.199 1546.09 667.761 1546.61 667.425C1547.14 667.089 1547.72 666.92 1548.38 666.92C1548.5 666.92 1548.65 666.923 1548.84 666.928C1549.02 666.932 1549.16 666.939 1549.26 666.949V668.653C1549.2 668.639 1549.07 668.618 1548.87 668.589C1548.67 668.556 1548.46 668.54 1548.23 668.54C1547.7 668.54 1547.23 668.651 1546.81 668.874C1546.4 669.091 1546.07 669.394 1545.83 669.783C1545.6 670.166 1545.48 670.604 1545.48 671.097V678H1543.8ZM1561.61 667.091V668.511H1555.96V667.091H1561.61ZM1557.61 664.477H1559.28V674.875C1559.28 675.348 1559.35 675.704 1559.49 675.94C1559.63 676.172 1559.81 676.329 1560.03 676.409C1560.25 676.485 1560.49 676.523 1560.73 676.523C1560.92 676.523 1561.07 676.513 1561.19 676.494C1561.3 676.471 1561.4 676.452 1561.47 676.438L1561.81 677.943C1561.7 677.986 1561.54 678.028 1561.34 678.071C1561.13 678.118 1560.87 678.142 1560.56 678.142C1560.09 678.142 1559.62 678.04 1559.17 677.837C1558.72 677.633 1558.35 677.323 1558.05 676.906C1557.75 676.49 1557.61 675.964 1557.61 675.33V664.477ZM1568.45 678.227C1567.46 678.227 1566.6 677.993 1565.86 677.524C1565.12 677.055 1564.54 676.4 1564.12 675.557C1563.71 674.714 1563.51 673.729 1563.51 672.602C1563.51 671.466 1563.71 670.474 1564.12 669.626C1564.54 668.779 1565.12 668.121 1565.86 667.652C1566.6 667.183 1567.46 666.949 1568.45 666.949C1569.43 666.949 1570.29 667.183 1571.03 667.652C1571.78 668.121 1572.35 668.779 1572.77 669.626C1573.18 670.474 1573.39 671.466 1573.39 672.602C1573.39 673.729 1573.18 674.714 1572.77 675.557C1572.35 676.4 1571.78 677.055 1571.03 677.524C1570.29 677.993 1569.43 678.227 1568.45 678.227ZM1568.45 676.722C1569.2 676.722 1569.81 676.53 1570.29 676.146C1570.78 675.763 1571.14 675.259 1571.37 674.634C1571.6 674.009 1571.72 673.331 1571.72 672.602C1571.72 671.873 1571.6 671.194 1571.37 670.564C1571.14 669.934 1570.78 669.425 1570.29 669.037C1569.81 668.649 1569.2 668.455 1568.45 668.455C1567.7 668.455 1567.08 668.649 1566.6 669.037C1566.12 669.425 1565.76 669.934 1565.53 670.564C1565.3 671.194 1565.18 671.873 1565.18 672.602C1565.18 673.331 1565.3 674.009 1565.53 674.634C1565.76 675.259 1566.12 675.763 1566.6 676.146C1567.08 676.53 1567.7 676.722 1568.45 676.722ZM1580.07 678.227C1579.16 678.227 1578.36 677.998 1577.66 677.538C1576.97 677.074 1576.42 676.421 1576.03 675.578C1575.64 674.731 1575.44 673.729 1575.44 672.574C1575.44 671.428 1575.64 670.434 1576.03 669.591C1576.42 668.748 1576.97 668.097 1577.67 667.638C1578.37 667.179 1579.18 666.949 1580.1 666.949C1580.81 666.949 1581.37 667.067 1581.78 667.304C1582.2 667.536 1582.51 667.801 1582.73 668.099C1582.96 668.393 1583.13 668.634 1583.25 668.824H1583.39V663.455H1585.07V678H1583.45V676.324H1583.25C1583.13 676.523 1582.95 676.774 1582.73 677.077C1582.5 677.375 1582.17 677.643 1581.75 677.879C1581.33 678.111 1580.77 678.227 1580.07 678.227ZM1580.3 676.722C1580.97 676.722 1581.54 676.546 1582 676.196C1582.47 675.841 1582.82 675.351 1583.06 674.726C1583.3 674.096 1583.42 673.369 1583.42 672.545C1583.42 671.731 1583.3 671.018 1583.07 670.408C1582.83 669.792 1582.48 669.314 1582.02 668.973C1581.55 668.627 1580.98 668.455 1580.3 668.455C1579.59 668.455 1578.99 668.637 1578.52 669.001C1578.05 669.361 1577.7 669.851 1577.46 670.472C1577.23 671.087 1577.11 671.778 1577.11 672.545C1577.11 673.322 1577.23 674.027 1577.47 674.662C1577.71 675.292 1578.07 675.794 1578.54 676.168C1579.01 676.537 1579.6 676.722 1580.3 676.722ZM1591.58 678.256C1590.89 678.256 1590.26 678.125 1589.7 677.865C1589.14 677.6 1588.69 677.219 1588.36 676.722C1588.03 676.22 1587.86 675.614 1587.86 674.903C1587.86 674.278 1587.98 673.772 1588.23 673.384C1588.48 672.991 1588.81 672.683 1589.22 672.46C1589.63 672.238 1590.08 672.072 1590.58 671.963C1591.08 671.849 1591.59 671.759 1592.09 671.693C1592.76 671.608 1593.29 671.544 1593.71 671.501C1594.12 671.454 1594.43 671.376 1594.61 671.267C1594.81 671.158 1594.91 670.969 1594.91 670.699V670.642C1594.91 669.941 1594.71 669.397 1594.33 669.009C1593.95 668.62 1593.38 668.426 1592.6 668.426C1591.8 668.426 1591.18 668.601 1590.72 668.952C1590.27 669.302 1589.95 669.676 1589.76 670.074L1588.17 669.506C1588.46 668.843 1588.84 668.327 1589.31 667.957C1589.79 667.583 1590.31 667.323 1590.87 667.176C1591.44 667.025 1592 666.949 1592.55 666.949C1592.9 666.949 1593.3 666.991 1593.76 667.077C1594.21 667.157 1594.66 667.325 1595.08 667.581C1595.51 667.837 1595.87 668.223 1596.16 668.739C1596.44 669.255 1596.58 669.946 1596.58 670.812V678H1594.91V676.523H1594.82C1594.71 676.759 1594.52 677.013 1594.25 677.283C1593.99 677.553 1593.63 677.782 1593.19 677.972C1592.75 678.161 1592.22 678.256 1591.58 678.256ZM1591.84 676.75C1592.5 676.75 1593.06 676.62 1593.51 676.359C1593.97 676.099 1594.32 675.763 1594.55 675.351C1594.79 674.939 1594.91 674.506 1594.91 674.051V672.517C1594.84 672.602 1594.68 672.68 1594.44 672.751C1594.2 672.818 1593.93 672.877 1593.61 672.929C1593.31 672.976 1593.01 673.019 1592.71 673.057C1592.42 673.09 1592.19 673.118 1592.01 673.142C1591.57 673.199 1591.17 673.291 1590.79 673.419C1590.41 673.542 1590.11 673.729 1589.88 673.98C1589.65 674.226 1589.54 674.562 1589.54 674.989C1589.54 675.571 1589.75 676.011 1590.18 676.31C1590.62 676.603 1591.17 676.75 1591.84 676.75ZM1600.33 682.091C1600.05 682.091 1599.79 682.067 1599.57 682.02C1599.35 681.977 1599.19 681.935 1599.11 681.892L1599.53 680.415C1599.94 680.519 1600.3 680.557 1600.61 680.528C1600.93 680.5 1601.2 680.36 1601.45 680.109C1601.69 679.863 1601.92 679.463 1602.12 678.909L1602.43 678.057L1598.4 667.091H1600.22L1603.23 675.784H1603.34L1606.35 667.091H1608.17L1603.54 679.591C1603.33 680.154 1603.07 680.621 1602.77 680.99C1602.46 681.364 1602.1 681.641 1601.69 681.821C1601.29 682.001 1600.84 682.091 1600.33 682.091Z" fill="black"></path>
<defs>
<pattern id="pattern0_404_100" patternContentUnits="objectBoundingBox" width="1" height="1">
<use xlink:href="#image0_404_100" transform="scale(0.00029577 0.000548847)"></use>
</pattern>
<image id="image0_404_100" width="3381" height="1822" preserveAspectRatio="none"></image>
</defs>
</svg>