<svg width="1113" height="578" viewBox="0 0 1113 578" fill="none" xmlns="http://www.w3.org/2000/svg" xmlns:xlink="http://www.w3.org/1999/xlink">
<rect width="1112.5" height="578" fill="url(#pattern0_403_82)"></rect>
<rect width="1112.5" height="578" fill="url(#pattern1_403_82)"></rect>
<rect width="1112.5" height="578" fill="url(#pattern2_403_82)"></rect>
<rect width="1112.5" height="578" fill="url(#pattern3_403_82)"></rect>
<path d="M500.317 60H498.556C498.452 59.4934 498.27 59.0483 498.009 58.6648C497.754 58.2812 497.441 57.9593 497.072 57.6989C496.707 57.4337 496.302 57.2348 495.857 57.1023C495.412 56.9697 494.948 56.9034 494.465 56.9034C493.585 56.9034 492.787 57.1259 492.072 57.571C491.362 58.0161 490.796 58.6719 490.374 59.5384C489.958 60.4048 489.749 61.4678 489.749 62.7273C489.749 63.9867 489.958 65.0497 490.374 65.9162C490.796 66.7827 491.362 67.4384 492.072 67.8835C492.787 68.3286 493.585 68.5511 494.465 68.5511C494.948 68.5511 495.412 68.4848 495.857 68.3523C496.302 68.2197 496.707 68.0232 497.072 67.7628C497.441 67.4976 497.754 67.1733 498.009 66.7898C498.27 66.4015 498.452 65.9564 498.556 65.4545H500.317C500.185 66.1979 499.943 66.8632 499.593 67.4503C499.243 68.0374 498.807 68.5369 498.286 68.9489C497.765 69.3561 497.181 69.6662 496.532 69.8793C495.888 70.0923 495.199 70.1989 494.465 70.1989C493.225 70.1989 492.121 69.8958 491.156 69.2898C490.19 68.6837 489.43 67.822 488.876 66.7045C488.322 65.5871 488.045 64.2614 488.045 62.7273C488.045 61.1932 488.322 59.8674 488.876 58.75C489.43 57.6326 490.19 56.7708 491.156 56.1648C492.121 55.5587 493.225 55.2557 494.465 55.2557C495.199 55.2557 495.888 55.3622 496.532 55.5753C497.181 55.7884 497.765 56.1009 498.286 56.5128C498.807 56.92 499.243 57.4171 499.593 58.0043C499.943 58.5866 500.185 59.2519 500.317 60ZM504.613 55.4545V70H502.936V55.4545H504.613ZM512.114 70.2273C511.129 70.2273 510.265 69.9929 509.522 69.5241C508.783 69.0554 508.206 68.3996 507.789 67.5568C507.377 66.714 507.171 65.7292 507.171 64.6023C507.171 63.4659 507.377 62.474 507.789 61.6264C508.206 60.7789 508.783 60.1207 509.522 59.652C510.265 59.1832 511.129 58.9489 512.114 58.9489C513.099 58.9489 513.961 59.1832 514.7 59.652C515.443 60.1207 516.021 60.7789 516.433 61.6264C516.849 62.474 517.058 63.4659 517.058 64.6023C517.058 65.7292 516.849 66.714 516.433 67.5568C516.021 68.3996 515.443 69.0554 514.7 69.5241C513.961 69.9929 513.099 70.2273 512.114 70.2273ZM512.114 68.7216C512.862 68.7216 513.478 68.5298 513.961 68.1463C514.444 67.7628 514.801 67.2585 515.033 66.6335C515.265 66.0085 515.381 65.3314 515.381 64.6023C515.381 63.8731 515.265 63.1937 515.033 62.5639C514.801 61.9342 514.444 61.4252 513.961 61.0369C513.478 60.6487 512.862 60.4545 512.114 60.4545C511.366 60.4545 510.751 60.6487 510.268 61.0369C509.785 61.4252 509.427 61.9342 509.195 62.5639C508.963 63.1937 508.847 63.8731 508.847 64.6023C508.847 65.3314 508.963 66.0085 509.195 66.6335C509.427 67.2585 509.785 67.7628 510.268 68.1463C510.751 68.5298 511.366 68.7216 512.114 68.7216ZM527.343 61.5341L525.838 61.9602C525.743 61.7093 525.603 61.4654 525.419 61.2287C525.239 60.9872 524.993 60.7884 524.68 60.6321C524.368 60.4759 523.967 60.3977 523.48 60.3977C522.812 60.3977 522.256 60.5516 521.811 60.8594C521.37 61.1624 521.15 61.5483 521.15 62.017C521.15 62.4337 521.302 62.7628 521.605 63.0043C521.908 63.2457 522.381 63.447 523.025 63.608L524.645 64.0057C525.62 64.2424 526.347 64.6046 526.825 65.0923C527.303 65.5753 527.542 66.1979 527.542 66.9602C527.542 67.5852 527.362 68.1439 527.002 68.6364C526.647 69.1288 526.15 69.517 525.511 69.8011C524.872 70.0852 524.128 70.2273 523.281 70.2273C522.168 70.2273 521.247 69.9858 520.518 69.5028C519.789 69.0199 519.327 68.3144 519.133 67.3864L520.724 66.9886C520.876 67.5758 521.162 68.0161 521.583 68.3097C522.01 68.6032 522.566 68.75 523.252 68.75C524.034 68.75 524.654 68.5843 525.113 68.2528C525.577 67.9167 525.809 67.5142 525.809 67.0455C525.809 66.6667 525.677 66.3494 525.412 66.0938C525.146 65.8333 524.739 65.6392 524.19 65.5114L522.372 65.0852C521.373 64.8485 520.639 64.4815 520.17 63.9844C519.706 63.4825 519.474 62.8551 519.474 62.1023C519.474 61.4867 519.647 60.9422 519.993 60.4688C520.343 59.9953 520.819 59.6236 521.42 59.3537C522.026 59.0838 522.713 58.9489 523.48 58.9489C524.559 58.9489 525.407 59.1856 526.022 59.6591C526.643 60.1326 527.083 60.7576 527.343 61.5341ZM534.639 70.2273C533.588 70.2273 532.681 69.9953 531.919 69.5312C531.161 69.0625 530.577 68.4091 530.165 67.571C529.758 66.7282 529.554 65.7481 529.554 64.6307C529.554 63.5133 529.758 62.5284 530.165 61.6761C530.577 60.8191 531.15 60.1515 531.884 59.6733C532.622 59.1903 533.484 58.9489 534.469 58.9489C535.037 58.9489 535.598 59.0436 536.152 59.233C536.706 59.4223 537.21 59.7301 537.665 60.1562C538.119 60.5777 538.482 61.1364 538.751 61.8324C539.021 62.5284 539.156 63.3854 539.156 64.4034V65.1136H530.747V63.6648H537.452C537.452 63.0492 537.329 62.5 537.082 62.017C536.841 61.5341 536.495 61.1529 536.045 60.8736C535.6 60.5942 535.075 60.4545 534.469 60.4545C533.801 60.4545 533.223 60.6203 532.736 60.9517C532.253 61.2784 531.881 61.7045 531.621 62.2301C531.36 62.7557 531.23 63.3191 531.23 63.9205V64.8864C531.23 65.7102 531.372 66.4086 531.656 66.9815C531.945 67.5497 532.345 67.983 532.857 68.2812C533.368 68.5748 533.962 68.7216 534.639 68.7216C535.08 68.7216 535.477 68.66 535.832 68.5369C536.192 68.4091 536.502 68.2197 536.763 67.9688C537.023 67.7131 537.224 67.3958 537.366 67.017L538.986 67.4716C538.815 68.0208 538.529 68.5038 538.126 68.9205C537.724 69.3324 537.227 69.6544 536.635 69.8864C536.043 70.1136 535.378 70.2273 534.639 70.2273ZM545.825 70.2273C544.916 70.2273 544.114 69.9976 543.418 69.5384C542.722 69.0743 542.177 68.4209 541.784 67.5781C541.391 66.7306 541.195 65.7292 541.195 64.5739C541.195 63.428 541.391 62.4337 541.784 61.5909C542.177 60.7481 542.724 60.0971 543.425 59.6378C544.125 59.1785 544.935 58.9489 545.854 58.9489C546.564 58.9489 547.125 59.0672 547.537 59.304C547.954 59.536 548.271 59.8011 548.489 60.0994C548.711 60.393 548.884 60.6345 549.007 60.8239H549.149V55.4545H550.825V70H549.206V68.3239H549.007C548.884 68.5227 548.709 68.7737 548.482 69.0767C548.254 69.375 547.93 69.6425 547.509 69.8793C547.087 70.1113 546.526 70.2273 545.825 70.2273ZM546.053 68.7216C546.725 68.7216 547.293 68.5464 547.757 68.196C548.221 67.8409 548.574 67.3509 548.815 66.7259C549.057 66.0961 549.178 65.3693 549.178 64.5455C549.178 63.7311 549.059 63.0185 548.822 62.4077C548.586 61.7921 548.235 61.3139 547.771 60.973C547.307 60.6274 546.734 60.4545 546.053 60.4545C545.342 60.4545 544.75 60.6368 544.277 61.0014C543.808 61.3613 543.455 61.8513 543.219 62.4716C542.987 63.0871 542.871 63.7784 542.871 64.5455C542.871 65.322 542.989 66.0275 543.226 66.6619C543.467 67.2917 543.822 67.7936 544.291 68.1676C544.765 68.5369 545.352 68.7216 546.053 68.7216ZM559.753 74.0909V59.0909H561.372V60.8239H561.571C561.694 60.6345 561.865 60.393 562.082 60.0994C562.305 59.8011 562.622 59.536 563.034 59.304C563.451 59.0672 564.014 58.9489 564.724 58.9489C565.643 58.9489 566.453 59.1785 567.153 59.6378C567.854 60.0971 568.401 60.7481 568.794 61.5909C569.187 62.4337 569.384 63.428 569.384 64.5739C569.384 65.7292 569.187 66.7306 568.794 67.5781C568.401 68.4209 567.857 69.0743 567.161 69.5384C566.464 69.9976 565.662 70.2273 564.753 70.2273C564.052 70.2273 563.491 70.1113 563.07 69.8793C562.648 69.6425 562.324 69.375 562.097 69.0767C561.869 68.7737 561.694 68.5227 561.571 68.3239H561.429V74.0909H559.753ZM561.401 64.5455C561.401 65.3693 561.521 66.0961 561.763 66.7259C562.004 67.3509 562.357 67.8409 562.821 68.196C563.285 68.5464 563.853 68.7216 564.526 68.7216C565.226 68.7216 565.811 68.5369 566.28 68.1676C566.753 67.7936 567.108 67.2917 567.345 66.6619C567.587 66.0275 567.707 65.322 567.707 64.5455C567.707 63.7784 567.589 63.0871 567.352 62.4716C567.12 61.8513 566.768 61.3613 566.294 61.0014C565.825 60.6368 565.236 60.4545 564.526 60.4545C563.844 60.4545 563.271 60.6274 562.807 60.973C562.343 61.3139 561.992 61.7921 561.756 62.4077C561.519 63.0185 561.401 63.7311 561.401 64.5455ZM576.372 70.2273C575.387 70.2273 574.523 69.9929 573.78 69.5241C573.041 69.0554 572.464 68.3996 572.047 67.5568C571.635 66.714 571.429 65.7292 571.429 64.6023C571.429 63.4659 571.635 62.474 572.047 61.6264C572.464 60.7789 573.041 60.1207 573.78 59.652C574.523 59.1832 575.387 58.9489 576.372 58.9489C577.357 58.9489 578.219 59.1832 578.957 59.652C579.701 60.1207 580.278 60.7789 580.69 61.6264C581.107 62.474 581.315 63.4659 581.315 64.6023C581.315 65.7292 581.107 66.714 580.69 67.5568C580.278 68.3996 579.701 69.0554 578.957 69.5241C578.219 69.9929 577.357 70.2273 576.372 70.2273ZM576.372 68.7216C577.12 68.7216 577.736 68.5298 578.219 68.1463C578.702 67.7628 579.059 67.2585 579.291 66.6335C579.523 66.0085 579.639 65.3314 579.639 64.6023C579.639 63.8731 579.523 63.1937 579.291 62.5639C579.059 61.9342 578.702 61.4252 578.219 61.0369C577.736 60.6487 577.12 60.4545 576.372 60.4545C575.624 60.4545 575.009 60.6487 574.526 61.0369C574.043 61.4252 573.685 61.9342 573.453 62.5639C573.221 63.1937 573.105 63.8731 573.105 64.6023C573.105 65.3314 573.221 66.0085 573.453 66.6335C573.685 67.2585 574.043 67.7628 574.526 68.1463C575.009 68.5298 575.624 68.7216 576.372 68.7216ZM591.601 61.5341L590.096 61.9602C590.001 61.7093 589.861 61.4654 589.676 61.2287C589.497 60.9872 589.25 60.7884 588.938 60.6321C588.625 60.4759 588.225 60.3977 587.738 60.3977C587.07 60.3977 586.514 60.5516 586.069 60.8594C585.628 61.1624 585.408 61.5483 585.408 62.017C585.408 62.4337 585.56 62.7628 585.863 63.0043C586.166 63.2457 586.639 63.447 587.283 63.608L588.902 64.0057C589.878 64.2424 590.605 64.6046 591.083 65.0923C591.561 65.5753 591.8 66.1979 591.8 66.9602C591.8 67.5852 591.62 68.1439 591.26 68.6364C590.905 69.1288 590.408 69.517 589.769 69.8011C589.13 70.0852 588.386 70.2273 587.539 70.2273C586.426 70.2273 585.505 69.9858 584.776 69.5028C584.047 69.0199 583.585 68.3144 583.391 67.3864L584.982 66.9886C585.133 67.5758 585.42 68.0161 585.841 68.3097C586.267 68.6032 586.824 68.75 587.51 68.75C588.292 68.75 588.912 68.5843 589.371 68.2528C589.835 67.9167 590.067 67.5142 590.067 67.0455C590.067 66.6667 589.935 66.3494 589.669 66.0938C589.404 65.8333 588.997 65.6392 588.448 65.5114L586.63 65.0852C585.631 64.8485 584.897 64.4815 584.428 63.9844C583.964 63.4825 583.732 62.8551 583.732 62.1023C583.732 61.4867 583.905 60.9422 584.25 60.4688C584.601 59.9953 585.077 59.6236 585.678 59.3537C586.284 59.0838 586.971 58.9489 587.738 58.9489C588.817 58.9489 589.665 59.1856 590.28 59.6591C590.9 60.1326 591.341 60.7576 591.601 61.5341ZM594.323 70V59.0909H595.999V70H594.323ZM595.175 57.2727C594.849 57.2727 594.567 57.1615 594.33 56.9389C594.098 56.7164 593.982 56.4489 593.982 56.1364C593.982 55.8239 594.098 55.5563 594.33 55.3338C594.567 55.1113 594.849 55 595.175 55C595.502 55 595.781 55.1113 596.013 55.3338C596.25 55.5563 596.369 55.8239 596.369 56.1364C596.369 56.4489 596.25 56.7164 596.013 56.9389C595.781 57.1615 595.502 57.2727 595.175 57.2727ZM603.814 59.0909V60.5114H598.16V59.0909H603.814ZM599.808 56.4773H601.484V66.875C601.484 67.3485 601.553 67.7036 601.69 67.9403C601.832 68.1723 602.012 68.3286 602.23 68.4091C602.452 68.4848 602.687 68.5227 602.933 68.5227C603.118 68.5227 603.269 68.5133 603.387 68.4943C603.506 68.4706 603.6 68.4517 603.672 68.4375L604.012 69.9432C603.899 69.9858 603.74 70.0284 603.537 70.071C603.333 70.1184 603.075 70.142 602.762 70.142C602.289 70.142 601.825 70.0402 601.37 69.8366C600.921 69.633 600.547 69.3229 600.248 68.9062C599.955 68.4896 599.808 67.964 599.808 67.3295V56.4773ZM606.335 70V59.0909H608.011V70H606.335ZM607.187 57.2727C606.86 57.2727 606.579 57.1615 606.342 56.9389C606.11 56.7164 605.994 56.4489 605.994 56.1364C605.994 55.8239 606.11 55.5563 606.342 55.3338C606.579 55.1113 606.86 55 607.187 55C607.514 55 607.793 55.1113 608.025 55.3338C608.262 55.5563 608.38 55.8239 608.38 56.1364C608.38 56.4489 608.262 56.7164 608.025 56.9389C607.793 57.1615 607.514 57.2727 607.187 57.2727ZM615.513 70.2273C614.528 70.2273 613.664 69.9929 612.92 69.5241C612.182 69.0554 611.604 68.3996 611.188 67.5568C610.776 66.714 610.57 65.7292 610.57 64.6023C610.57 63.4659 610.776 62.474 611.188 61.6264C611.604 60.7789 612.182 60.1207 612.92 59.652C613.664 59.1832 614.528 58.9489 615.513 58.9489C616.498 58.9489 617.359 59.1832 618.098 59.652C618.841 60.1207 619.419 60.7789 619.831 61.6264C620.248 62.474 620.456 63.4659 620.456 64.6023C620.456 65.7292 620.248 66.714 619.831 67.5568C619.419 68.3996 618.841 69.0554 618.098 69.5241C617.359 69.9929 616.498 70.2273 615.513 70.2273ZM615.513 68.7216C616.261 68.7216 616.876 68.5298 617.359 68.1463C617.842 67.7628 618.2 67.2585 618.432 66.6335C618.664 66.0085 618.78 65.3314 618.78 64.6023C618.78 63.8731 618.664 63.1937 618.432 62.5639C618.2 61.9342 617.842 61.4252 617.359 61.0369C616.876 60.6487 616.261 60.4545 615.513 60.4545C614.765 60.4545 614.149 60.6487 613.666 61.0369C613.183 61.4252 612.826 61.9342 612.594 62.5639C612.362 63.1937 612.246 63.8731 612.246 64.6023C612.246 65.3314 612.362 66.0085 612.594 66.6335C612.826 67.2585 613.183 67.7628 613.666 68.1463C614.149 68.5298 614.765 68.7216 615.513 68.7216ZM624.691 63.4375V70H623.015V59.0909H624.634V60.7955H624.776C625.032 60.2415 625.42 59.7964 625.941 59.4602C626.462 59.1193 627.134 58.9489 627.958 58.9489C628.696 58.9489 629.343 59.1004 629.897 59.4034C630.451 59.7017 630.882 60.1562 631.189 60.767C631.497 61.3731 631.651 62.1402 631.651 63.0682V70H629.975V63.1818C629.975 62.3248 629.752 61.6572 629.307 61.179C628.862 60.696 628.251 60.4545 627.475 60.4545C626.94 60.4545 626.462 60.5705 626.04 60.8026C625.623 61.0346 625.294 61.3731 625.053 61.8182C624.811 62.2633 624.691 62.803 624.691 63.4375ZM642.441 61.5341L640.935 61.9602C640.841 61.7093 640.701 61.4654 640.516 61.2287C640.336 60.9872 640.09 60.7884 639.778 60.6321C639.465 60.4759 639.065 60.3977 638.577 60.3977C637.91 60.3977 637.353 60.5516 636.908 60.8594C636.468 61.1624 636.248 61.5483 636.248 62.017C636.248 62.4337 636.399 62.7628 636.702 63.0043C637.005 63.2457 637.479 63.447 638.123 63.608L639.742 64.0057C640.718 64.2424 641.444 64.6046 641.923 65.0923C642.401 65.5753 642.64 66.1979 642.64 66.9602C642.64 67.5852 642.46 68.1439 642.1 68.6364C641.745 69.1288 641.248 69.517 640.609 69.8011C639.969 70.0852 639.226 70.2273 638.379 70.2273C637.266 70.2273 636.345 69.9858 635.616 69.5028C634.887 69.0199 634.425 68.3144 634.231 67.3864L635.822 66.9886C635.973 67.5758 636.26 68.0161 636.681 68.3097C637.107 68.6032 637.664 68.75 638.35 68.75C639.131 68.75 639.752 68.5843 640.211 68.2528C640.675 67.9167 640.907 67.5142 640.907 67.0455C640.907 66.6667 640.774 66.3494 640.509 66.0938C640.244 65.8333 639.837 65.6392 639.288 65.5114L637.469 65.0852C636.47 64.8485 635.737 64.4815 635.268 63.9844C634.804 63.4825 634.572 62.8551 634.572 62.1023C634.572 61.4867 634.745 60.9422 635.09 60.4688C635.441 59.9953 635.916 59.6236 636.518 59.3537C637.124 59.0838 637.81 58.9489 638.577 58.9489C639.657 58.9489 640.504 59.1856 641.12 59.6591C641.74 60.1326 642.181 60.7576 642.441 61.5341ZM653.26 70L649.936 59.0909H651.697L654.055 67.4432H654.169L656.498 59.0909H658.288L660.589 67.4148H660.703L663.061 59.0909H664.822L661.498 70H659.85L657.464 61.6193H657.294L654.907 70H653.26ZM667.038 70V59.0909H668.714V70H667.038ZM667.89 57.2727C667.564 57.2727 667.282 57.1615 667.045 56.9389C666.813 56.7164 666.697 56.4489 666.697 56.1364C666.697 55.8239 666.813 55.5563 667.045 55.3338C667.282 55.1113 667.564 55 667.89 55C668.217 55 668.496 55.1113 668.728 55.3338C668.965 55.5563 669.083 55.8239 669.083 56.1364C669.083 56.4489 668.965 56.7164 668.728 56.9389C668.496 57.1615 668.217 57.2727 667.89 57.2727ZM676.528 59.0909V60.5114H670.875V59.0909H676.528ZM672.523 56.4773H674.199V66.875C674.199 67.3485 674.268 67.7036 674.405 67.9403C674.547 68.1723 674.727 68.3286 674.945 68.4091C675.167 68.4848 675.402 68.5227 675.648 68.5227C675.832 68.5227 675.984 68.5133 676.102 68.4943C676.221 68.4706 676.315 68.4517 676.386 68.4375L676.727 69.9432C676.614 69.9858 676.455 70.0284 676.251 70.071C676.048 70.1184 675.79 70.142 675.477 70.142C675.004 70.142 674.54 70.0402 674.085 69.8366C673.635 69.633 673.261 69.3229 672.963 68.9062C672.67 68.4896 672.523 67.964 672.523 67.3295V56.4773ZM680.96 63.4375V70H679.284V55.4545H680.96V60.7955H681.102C681.358 60.232 681.741 59.7846 682.253 59.4531C682.769 59.117 683.455 58.9489 684.312 58.9489C685.056 58.9489 685.707 59.098 686.266 59.3963C686.824 59.6899 687.258 60.142 687.565 60.7528C687.878 61.3589 688.034 62.1307 688.034 63.0682V70H686.358V63.1818C686.358 62.3153 686.133 61.6454 685.683 61.1719C685.238 60.6937 684.62 60.4545 683.83 60.4545C683.28 60.4545 682.788 60.5705 682.352 60.8026C681.921 61.0346 681.58 61.3731 681.33 61.8182C681.083 62.2633 680.96 62.803 680.96 63.4375Z" fill="black"></path>
<path d="M696.953 70V55.4545H701.868C703.009 55.4545 703.941 55.6605 704.666 56.0724C705.395 56.4796 705.935 57.0312 706.285 57.7273C706.636 58.4233 706.811 59.1998 706.811 60.0568C706.811 60.9138 706.636 61.6927 706.285 62.3935C705.94 63.0942 705.404 63.6529 704.68 64.0696C703.956 64.4815 703.028 64.6875 701.896 64.6875H698.373V63.125H701.839C702.62 63.125 703.248 62.9901 703.721 62.7202C704.195 62.4503 704.538 62.0857 704.751 61.6264C704.969 61.1624 705.078 60.6392 705.078 60.0568C705.078 59.4744 704.969 58.9536 704.751 58.4943C704.538 58.035 704.192 57.6752 703.714 57.4148C703.236 57.1496 702.601 57.017 701.811 57.017H698.714V70H696.953ZM709.421 70V59.0909H711.04V60.7386H711.154C711.353 60.1989 711.712 59.7609 712.233 59.4247C712.754 59.0885 713.341 58.9205 713.995 58.9205C714.118 58.9205 714.272 58.9228 714.456 58.9276C714.641 58.9323 714.781 58.9394 714.875 58.9489V60.6534C714.819 60.6392 714.688 60.6179 714.485 60.5895C714.286 60.5563 714.075 60.5398 713.853 60.5398C713.322 60.5398 712.849 60.651 712.432 60.8736C712.02 61.0914 711.694 61.3944 711.452 61.7827C711.215 62.1662 711.097 62.6042 711.097 63.0966V70H709.421ZM720.962 70.2273C719.977 70.2273 719.113 69.9929 718.37 69.5241C717.631 69.0554 717.053 68.3996 716.637 67.5568C716.225 66.714 716.019 65.7292 716.019 64.6023C716.019 63.4659 716.225 62.474 716.637 61.6264C717.053 60.7789 717.631 60.1207 718.37 59.652C719.113 59.1832 719.977 58.9489 720.962 58.9489C721.947 58.9489 722.809 59.1832 723.547 59.652C724.291 60.1207 724.868 60.7789 725.28 61.6264C725.697 62.474 725.905 63.4659 725.905 64.6023C725.905 65.7292 725.697 66.714 725.28 67.5568C724.868 68.3996 724.291 69.0554 723.547 69.5241C722.809 69.9929 721.947 70.2273 720.962 70.2273ZM720.962 68.7216C721.71 68.7216 722.326 68.5298 722.809 68.1463C723.292 67.7628 723.649 67.2585 723.881 66.6335C724.113 66.0085 724.229 65.3314 724.229 64.6023C724.229 63.8731 724.113 63.1937 723.881 62.5639C723.649 61.9342 723.292 61.4252 722.809 61.0369C722.326 60.6487 721.71 60.4545 720.962 60.4545C720.214 60.4545 719.598 60.6487 719.115 61.0369C718.632 61.4252 718.275 61.9342 718.043 62.5639C717.811 63.1937 717.695 63.8731 717.695 64.6023C717.695 65.3314 717.811 66.0085 718.043 66.6335C718.275 67.2585 718.632 67.7628 719.115 68.1463C719.598 68.5298 720.214 68.7216 720.962 68.7216ZM733.322 59.0909V60.5114H727.441V59.0909H733.322ZM729.202 70V57.5852C729.202 56.9602 729.349 56.4394 729.643 56.0227C729.936 55.6061 730.317 55.2936 730.786 55.0852C731.255 54.8769 731.75 54.7727 732.271 54.7727C732.683 54.7727 733.019 54.8059 733.279 54.8722C733.54 54.9384 733.734 55 733.862 55.0568L733.379 56.5057C733.293 56.4773 733.175 56.4418 733.023 56.3991C732.877 56.3565 732.683 56.3352 732.441 56.3352C731.887 56.3352 731.487 56.4749 731.241 56.7543C730.999 57.0336 730.879 57.4432 730.879 57.983V70H729.202ZM735.671 70V59.0909H737.347V70H735.671ZM736.523 57.2727C736.196 57.2727 735.915 57.1615 735.678 56.9389C735.446 56.7164 735.33 56.4489 735.33 56.1364C735.33 55.8239 735.446 55.5563 735.678 55.3338C735.915 55.1113 736.196 55 736.523 55C736.85 55 737.129 55.1113 737.361 55.3338C737.598 55.5563 737.716 55.8239 737.716 56.1364C737.716 56.4489 737.598 56.7164 737.361 56.9389C737.129 57.1615 736.85 57.2727 736.523 57.2727ZM745.161 59.0909V60.5114H739.508V59.0909H745.161ZM741.156 56.4773H742.832V66.875C742.832 67.3485 742.9 67.7036 743.038 67.9403C743.18 68.1723 743.36 68.3286 743.577 68.4091C743.8 68.4848 744.034 68.5227 744.281 68.5227C744.465 68.5227 744.617 68.5133 744.735 68.4943C744.853 68.4706 744.948 68.4517 745.019 68.4375L745.36 69.9432C745.246 69.9858 745.088 70.0284 744.884 70.071C744.681 70.1184 744.423 70.142 744.11 70.142C743.637 70.142 743.173 70.0402 742.718 69.8366C742.268 69.633 741.894 69.3229 741.596 68.9062C741.302 68.4896 741.156 67.964 741.156 67.3295V56.4773Z" fill="black"></path>
<path d="M776.476 228.455H778.237V238.852C778.237 239.78 778.067 240.569 777.726 241.217C777.385 241.866 776.905 242.358 776.284 242.695C775.664 243.031 774.932 243.199 774.09 243.199C773.294 243.199 772.586 243.054 771.966 242.766C771.346 242.472 770.858 242.055 770.503 241.516C770.148 240.976 769.97 240.334 769.97 239.591H771.703C771.703 240.003 771.805 240.363 772.009 240.67C772.217 240.973 772.501 241.21 772.861 241.381C773.221 241.551 773.63 241.636 774.09 241.636C774.596 241.636 775.027 241.53 775.382 241.317C775.737 241.104 776.007 240.791 776.192 240.379C776.381 239.963 776.476 239.454 776.476 238.852V228.455ZM785.972 243.227C784.987 243.227 784.123 242.993 783.379 242.524C782.641 242.055 782.063 241.4 781.646 240.557C781.235 239.714 781.029 238.729 781.029 237.602C781.029 236.466 781.235 235.474 781.646 234.626C782.063 233.779 782.641 233.121 783.379 232.652C784.123 232.183 784.987 231.949 785.972 231.949C786.957 231.949 787.818 232.183 788.557 232.652C789.3 233.121 789.878 233.779 790.29 234.626C790.707 235.474 790.915 236.466 790.915 237.602C790.915 238.729 790.707 239.714 790.29 240.557C789.878 241.4 789.3 242.055 788.557 242.524C787.818 242.993 786.957 243.227 785.972 243.227ZM785.972 241.722C786.72 241.722 787.335 241.53 787.818 241.146C788.301 240.763 788.659 240.259 788.891 239.634C789.123 239.009 789.239 238.331 789.239 237.602C789.239 236.873 789.123 236.194 788.891 235.564C788.659 234.934 788.301 234.425 787.818 234.037C787.335 233.649 786.72 233.455 785.972 233.455C785.224 233.455 784.608 233.649 784.125 234.037C783.642 234.425 783.285 234.934 783.053 235.564C782.821 236.194 782.705 236.873 782.705 237.602C782.705 238.331 782.821 239.009 783.053 239.634C783.285 240.259 783.642 240.763 784.125 241.146C784.608 241.53 785.224 241.722 785.972 241.722ZM800.349 238.54V232.091H802.025V243H800.349V241.153H800.235C799.979 241.707 799.581 242.179 799.042 242.567C798.502 242.95 797.82 243.142 796.996 243.142C796.314 243.142 795.708 242.993 795.178 242.695C794.648 242.392 794.231 241.937 793.928 241.331C793.625 240.72 793.474 239.951 793.474 239.023V232.091H795.15V238.909C795.15 239.705 795.372 240.339 795.817 240.812C796.267 241.286 796.84 241.523 797.536 241.523C797.953 241.523 798.376 241.416 798.807 241.203C799.243 240.99 799.608 240.663 799.901 240.223C800.199 239.783 800.349 239.222 800.349 238.54ZM805.095 243V232.091H806.714V233.739H806.828C807.026 233.199 807.386 232.761 807.907 232.425C808.428 232.089 809.015 231.92 809.669 231.92C809.792 231.92 809.945 231.923 810.13 231.928C810.315 231.932 810.454 231.939 810.549 231.949V233.653C810.492 233.639 810.362 233.618 810.159 233.589C809.96 233.556 809.749 233.54 809.526 233.54C808.996 233.54 808.523 233.651 808.106 233.874C807.694 234.091 807.367 234.394 807.126 234.783C806.889 235.166 806.771 235.604 806.771 236.097V243H805.095ZM814.212 236.438V243H812.536V232.091H814.155V233.795H814.297C814.553 233.241 814.941 232.796 815.462 232.46C815.983 232.119 816.655 231.949 817.479 231.949C818.218 231.949 818.864 232.1 819.418 232.403C819.972 232.702 820.403 233.156 820.711 233.767C821.019 234.373 821.172 235.14 821.172 236.068V243H819.496V236.182C819.496 235.325 819.274 234.657 818.829 234.179C818.384 233.696 817.773 233.455 816.996 233.455C816.461 233.455 815.983 233.571 815.562 233.803C815.145 234.035 814.816 234.373 814.574 234.818C814.333 235.263 814.212 235.803 814.212 236.438ZM827.445 243.256C826.754 243.256 826.127 243.125 825.563 242.865C825 242.6 824.552 242.219 824.221 241.722C823.89 241.22 823.724 240.614 823.724 239.903C823.724 239.278 823.847 238.772 824.093 238.384C824.339 237.991 824.669 237.683 825.08 237.46C825.492 237.238 825.947 237.072 826.444 236.963C826.946 236.849 827.45 236.759 827.957 236.693C828.62 236.608 829.157 236.544 829.569 236.501C829.986 236.454 830.289 236.376 830.478 236.267C830.672 236.158 830.769 235.969 830.769 235.699V235.642C830.769 234.941 830.578 234.397 830.194 234.009C829.815 233.62 829.24 233.426 828.468 233.426C827.668 233.426 827.041 233.601 826.586 233.952C826.132 234.302 825.812 234.676 825.627 235.074L824.036 234.506C824.32 233.843 824.699 233.327 825.173 232.957C825.651 232.583 826.172 232.323 826.735 232.176C827.303 232.025 827.862 231.949 828.411 231.949C828.762 231.949 829.164 231.991 829.619 232.077C830.078 232.157 830.521 232.325 830.947 232.581C831.378 232.837 831.735 233.223 832.019 233.739C832.303 234.255 832.445 234.946 832.445 235.812V243H830.769V241.523H830.684C830.57 241.759 830.381 242.013 830.116 242.283C829.851 242.553 829.498 242.782 829.058 242.972C828.617 243.161 828.08 243.256 827.445 243.256ZM827.701 241.75C828.364 241.75 828.923 241.62 829.377 241.359C829.837 241.099 830.182 240.763 830.414 240.351C830.651 239.939 830.769 239.506 830.769 239.051V237.517C830.698 237.602 830.542 237.68 830.301 237.751C830.064 237.818 829.789 237.877 829.477 237.929C829.169 237.976 828.868 238.019 828.575 238.057C828.286 238.09 828.052 238.118 827.872 238.142C827.436 238.199 827.029 238.291 826.65 238.419C826.276 238.542 825.973 238.729 825.741 238.98C825.514 239.226 825.4 239.562 825.4 239.989C825.4 240.571 825.615 241.011 826.046 241.31C826.482 241.603 827.034 241.75 827.701 241.75ZM837.181 228.455V243H835.505V228.455H837.181ZM850.45 243.227C849.399 243.227 848.492 242.995 847.73 242.531C846.972 242.062 846.387 241.409 845.975 240.571C845.568 239.728 845.365 238.748 845.365 237.631C845.365 236.513 845.568 235.528 845.975 234.676C846.387 233.819 846.96 233.152 847.694 232.673C848.433 232.19 849.294 231.949 850.279 231.949C850.847 231.949 851.409 232.044 851.963 232.233C852.517 232.422 853.021 232.73 853.475 233.156C853.93 233.578 854.292 234.136 854.562 234.832C854.832 235.528 854.967 236.385 854.967 237.403V238.114H846.558V236.665H853.262C853.262 236.049 853.139 235.5 852.893 235.017C852.651 234.534 852.306 234.153 851.856 233.874C851.411 233.594 850.885 233.455 850.279 233.455C849.612 233.455 849.034 233.62 848.546 233.952C848.063 234.278 847.692 234.705 847.431 235.23C847.171 235.756 847.041 236.319 847.041 236.92V237.886C847.041 238.71 847.183 239.409 847.467 239.982C847.756 240.55 848.156 240.983 848.667 241.281C849.178 241.575 849.773 241.722 850.45 241.722C850.89 241.722 851.288 241.66 851.643 241.537C852.003 241.409 852.313 241.22 852.573 240.969C852.834 240.713 853.035 240.396 853.177 240.017L854.796 240.472C854.626 241.021 854.339 241.504 853.937 241.92C853.535 242.332 853.037 242.654 852.445 242.886C851.854 243.114 851.188 243.227 850.45 243.227ZM859.193 236.438V243H857.517V232.091H859.136V233.795H859.278C859.534 233.241 859.922 232.796 860.443 232.46C860.963 232.119 861.636 231.949 862.46 231.949C863.198 231.949 863.845 232.1 864.399 232.403C864.953 232.702 865.383 233.156 865.691 233.767C865.999 234.373 866.153 235.14 866.153 236.068V243H864.477V236.182C864.477 235.325 864.254 234.657 863.809 234.179C863.364 233.696 862.753 233.455 861.977 233.455C861.442 233.455 860.963 233.571 860.542 233.803C860.125 234.035 859.796 234.373 859.555 234.818C859.313 235.263 859.193 235.803 859.193 236.438ZM873.96 232.091V233.511H868.307V232.091H873.96ZM869.954 229.477H871.631V239.875C871.631 240.348 871.699 240.704 871.836 240.94C871.979 241.172 872.158 241.329 872.376 241.409C872.599 241.485 872.833 241.523 873.079 241.523C873.264 241.523 873.416 241.513 873.534 241.494C873.652 241.471 873.747 241.452 873.818 241.438L874.159 242.943C874.045 242.986 873.887 243.028 873.683 243.071C873.479 243.118 873.221 243.142 872.909 243.142C872.435 243.142 871.971 243.04 871.517 242.837C871.067 242.633 870.693 242.323 870.395 241.906C870.101 241.49 869.954 240.964 869.954 240.33V229.477ZM876.481 243V232.091H878.101V233.739H878.214C878.413 233.199 878.773 232.761 879.294 232.425C879.815 232.089 880.402 231.92 881.055 231.92C881.178 231.92 881.332 231.923 881.517 231.928C881.702 231.932 881.841 231.939 881.936 231.949V233.653C881.879 233.639 881.749 233.618 881.545 233.589C881.346 233.556 881.136 233.54 880.913 233.54C880.383 233.54 879.909 233.651 879.493 233.874C879.081 234.091 878.754 234.394 878.513 234.783C878.276 235.166 878.157 235.604 878.157 236.097V243H876.481ZM885.334 247.091C885.05 247.091 884.797 247.067 884.574 247.02C884.352 246.977 884.198 246.935 884.113 246.892L884.539 245.415C884.946 245.519 885.306 245.557 885.618 245.528C885.931 245.5 886.208 245.36 886.449 245.109C886.696 244.863 886.921 244.463 887.124 243.909L887.437 243.057L883.403 232.091H885.221L888.232 240.784H888.346L891.357 232.091H893.175L888.545 244.591C888.336 245.154 888.078 245.621 887.77 245.99C887.463 246.364 887.105 246.641 886.698 246.821C886.296 247.001 885.841 247.091 885.334 247.091Z" fill="black"></path>
<path d="M95.6357 518.727C95.6357 520.261 95.3587 521.587 94.8047 522.705C94.2507 523.822 93.4908 524.684 92.5249 525.29C91.5589 525.896 90.4557 526.199 89.2152 526.199C87.9747 526.199 86.8714 525.896 85.9055 525.29C84.9396 524.684 84.1797 523.822 83.6257 522.705C83.0717 521.587 82.7947 520.261 82.7947 518.727C82.7947 517.193 83.0717 515.867 83.6257 514.75C84.1797 513.633 84.9396 512.771 85.9055 512.165C86.8714 511.559 87.9747 511.256 89.2152 511.256C90.4557 511.256 91.5589 511.559 92.5249 512.165C93.4908 512.771 94.2507 513.633 94.8047 514.75C95.3587 515.867 95.6357 517.193 95.6357 518.727ZM93.9311 518.727C93.9311 517.468 93.7204 516.405 93.299 515.538C92.8823 514.672 92.3165 514.016 91.6016 513.571C90.8913 513.126 90.0959 512.903 89.2152 512.903C88.3345 512.903 87.5367 513.126 86.8217 513.571C86.1115 514.016 85.5457 514.672 85.1243 515.538C84.7076 516.405 84.4993 517.468 84.4993 518.727C84.4993 519.987 84.7076 521.05 85.1243 521.916C85.5457 522.783 86.1115 523.438 86.8217 523.884C87.5367 524.329 88.3345 524.551 89.2152 524.551C90.0959 524.551 90.8913 524.329 91.6016 523.884C92.3165 523.438 92.8823 522.783 93.299 521.916C93.7204 521.05 93.9311 519.987 93.9311 518.727ZM98.37 530.091V515.091H99.9893V516.824H100.188C100.311 516.634 100.482 516.393 100.7 516.099C100.922 515.801 101.239 515.536 101.651 515.304C102.068 515.067 102.631 514.949 103.342 514.949C104.26 514.949 105.07 515.179 105.771 515.638C106.471 516.097 107.018 516.748 107.411 517.591C107.804 518.434 108.001 519.428 108.001 520.574C108.001 521.729 107.804 522.731 107.411 523.578C107.018 524.421 106.474 525.074 105.778 525.538C105.082 525.998 104.279 526.227 103.37 526.227C102.669 526.227 102.108 526.111 101.687 525.879C101.265 525.643 100.941 525.375 100.714 525.077C100.487 524.774 100.311 524.523 100.188 524.324H100.046V530.091H98.37ZM100.018 520.545C100.018 521.369 100.138 522.096 100.38 522.726C100.621 523.351 100.974 523.841 101.438 524.196C101.902 524.546 102.47 524.722 103.143 524.722C103.844 524.722 104.428 524.537 104.897 524.168C105.371 523.794 105.726 523.292 105.962 522.662C106.204 522.027 106.325 521.322 106.325 520.545C106.325 519.778 106.206 519.087 105.969 518.472C105.737 517.851 105.385 517.361 104.911 517.001C104.442 516.637 103.853 516.455 103.143 516.455C102.461 516.455 101.888 516.627 101.424 516.973C100.96 517.314 100.61 517.792 100.373 518.408C100.136 519.018 100.018 519.731 100.018 520.545ZM115.131 526.227C114.08 526.227 113.174 525.995 112.411 525.531C111.654 525.062 111.069 524.409 110.657 523.571C110.25 522.728 110.046 521.748 110.046 520.631C110.046 519.513 110.25 518.528 110.657 517.676C111.069 516.819 111.642 516.152 112.376 515.673C113.114 515.19 113.976 514.949 114.961 514.949C115.529 514.949 116.09 515.044 116.644 515.233C117.198 515.422 117.702 515.73 118.157 516.156C118.612 516.578 118.974 517.136 119.244 517.832C119.513 518.528 119.648 519.385 119.648 520.403V521.114H111.239V519.665H117.944C117.944 519.049 117.821 518.5 117.575 518.017C117.333 517.534 116.987 517.153 116.538 516.874C116.093 516.594 115.567 516.455 114.961 516.455C114.293 516.455 113.716 516.62 113.228 516.952C112.745 517.278 112.373 517.705 112.113 518.23C111.853 518.756 111.722 519.319 111.722 519.92V520.886C111.722 521.71 111.864 522.409 112.148 522.982C112.437 523.55 112.837 523.983 113.349 524.281C113.86 524.575 114.454 524.722 115.131 524.722C115.572 524.722 115.969 524.66 116.325 524.537C116.684 524.409 116.995 524.22 117.255 523.969C117.515 523.713 117.717 523.396 117.859 523.017L119.478 523.472C119.308 524.021 119.021 524.504 118.619 524.92C118.216 525.332 117.719 525.654 117.127 525.886C116.535 526.114 115.87 526.227 115.131 526.227ZM123.874 519.438V526H122.198V515.091H123.817V516.795H123.96C124.215 516.241 124.603 515.796 125.124 515.46C125.645 515.119 126.317 514.949 127.141 514.949C127.88 514.949 128.526 515.1 129.08 515.403C129.634 515.702 130.065 516.156 130.373 516.767C130.681 517.373 130.835 518.14 130.835 519.068V526H129.158V519.182C129.158 518.325 128.936 517.657 128.491 517.179C128.046 516.696 127.435 516.455 126.658 516.455C126.123 516.455 125.645 516.571 125.224 516.803C124.807 517.035 124.478 517.373 124.237 517.818C123.995 518.263 123.874 518.803 123.874 519.438ZM139.522 530.091V515.091H141.142V516.824H141.341C141.464 516.634 141.634 516.393 141.852 516.099C142.074 515.801 142.392 515.536 142.804 515.304C143.22 515.067 143.784 514.949 144.494 514.949C145.413 514.949 146.222 515.179 146.923 515.638C147.624 516.097 148.171 516.748 148.564 517.591C148.957 518.434 149.153 519.428 149.153 520.574C149.153 521.729 148.957 522.731 148.564 523.578C148.171 524.421 147.626 525.074 146.93 525.538C146.234 525.998 145.431 526.227 144.522 526.227C143.822 526.227 143.261 526.111 142.839 525.879C142.418 525.643 142.093 525.375 141.866 525.077C141.639 524.774 141.464 524.523 141.341 524.324H141.199V530.091H139.522ZM141.17 520.545C141.17 521.369 141.291 522.096 141.532 522.726C141.774 523.351 142.127 523.841 142.591 524.196C143.055 524.546 143.623 524.722 144.295 524.722C144.996 524.722 145.581 524.537 146.049 524.168C146.523 523.794 146.878 523.292 147.115 522.662C147.356 522.027 147.477 521.322 147.477 520.545C147.477 519.778 147.359 519.087 147.122 518.472C146.89 517.851 146.537 517.361 146.064 517.001C145.595 516.637 145.005 516.455 144.295 516.455C143.613 516.455 143.04 516.627 142.576 516.973C142.112 517.314 141.762 517.792 141.525 518.408C141.288 519.018 141.17 519.731 141.17 520.545ZM156.142 526.227C155.157 526.227 154.293 525.993 153.549 525.524C152.811 525.055 152.233 524.4 151.816 523.557C151.404 522.714 151.199 521.729 151.199 520.602C151.199 519.466 151.404 518.474 151.816 517.626C152.233 516.779 152.811 516.121 153.549 515.652C154.293 515.183 155.157 514.949 156.142 514.949C157.127 514.949 157.988 515.183 158.727 515.652C159.47 516.121 160.048 516.779 160.46 517.626C160.877 518.474 161.085 519.466 161.085 520.602C161.085 521.729 160.877 522.714 160.46 523.557C160.048 524.4 159.47 525.055 158.727 525.524C157.988 525.993 157.127 526.227 156.142 526.227ZM156.142 524.722C156.89 524.722 157.505 524.53 157.988 524.146C158.471 523.763 158.829 523.259 159.061 522.634C159.293 522.009 159.409 521.331 159.409 520.602C159.409 519.873 159.293 519.194 159.061 518.564C158.829 517.934 158.471 517.425 157.988 517.037C157.505 516.649 156.89 516.455 156.142 516.455C155.394 516.455 154.778 516.649 154.295 517.037C153.812 517.425 153.455 517.934 153.223 518.564C152.991 519.194 152.875 519.873 152.875 520.602C152.875 521.331 152.991 522.009 153.223 522.634C153.455 523.259 153.812 523.763 154.295 524.146C154.778 524.53 155.394 524.722 156.142 524.722ZM171.371 517.534L169.865 517.96C169.77 517.709 169.631 517.465 169.446 517.229C169.266 516.987 169.02 516.788 168.707 516.632C168.395 516.476 167.995 516.398 167.507 516.398C166.839 516.398 166.283 516.552 165.838 516.859C165.398 517.162 165.178 517.548 165.178 518.017C165.178 518.434 165.329 518.763 165.632 519.004C165.935 519.246 166.409 519.447 167.053 519.608L168.672 520.006C169.647 520.242 170.374 520.605 170.852 521.092C171.33 521.575 171.57 522.198 171.57 522.96C171.57 523.585 171.39 524.144 171.03 524.636C170.675 525.129 170.178 525.517 169.538 525.801C168.899 526.085 168.156 526.227 167.308 526.227C166.196 526.227 165.275 525.986 164.545 525.503C163.816 525.02 163.355 524.314 163.161 523.386L164.751 522.989C164.903 523.576 165.189 524.016 165.611 524.31C166.037 524.603 166.593 524.75 167.28 524.75C168.061 524.75 168.681 524.584 169.141 524.253C169.605 523.917 169.837 523.514 169.837 523.045C169.837 522.667 169.704 522.349 169.439 522.094C169.174 521.833 168.767 521.639 168.217 521.511L166.399 521.085C165.4 520.848 164.666 520.482 164.197 519.984C163.733 519.482 163.501 518.855 163.501 518.102C163.501 517.487 163.674 516.942 164.02 516.469C164.37 515.995 164.846 515.624 165.447 515.354C166.054 515.084 166.74 514.949 167.507 514.949C168.587 514.949 169.434 515.186 170.05 515.659C170.67 516.133 171.11 516.758 171.371 517.534ZM174.093 526V515.091H175.769V526H174.093ZM174.945 513.273C174.618 513.273 174.337 513.161 174.1 512.939C173.868 512.716 173.752 512.449 173.752 512.136C173.752 511.824 173.868 511.556 174.1 511.334C174.337 511.111 174.618 511 174.945 511C175.272 511 175.551 511.111 175.783 511.334C176.02 511.556 176.138 511.824 176.138 512.136C176.138 512.449 176.02 512.716 175.783 512.939C175.551 513.161 175.272 513.273 174.945 513.273ZM183.583 515.091V516.511H177.93V515.091H183.583ZM179.577 512.477H181.254V522.875C181.254 523.348 181.322 523.704 181.46 523.94C181.602 524.172 181.781 524.329 181.999 524.409C182.222 524.485 182.456 524.523 182.702 524.523C182.887 524.523 183.039 524.513 183.157 524.494C183.275 524.471 183.37 524.452 183.441 524.438L183.782 525.943C183.668 525.986 183.51 526.028 183.306 526.071C183.103 526.118 182.844 526.142 182.532 526.142C182.058 526.142 181.594 526.04 181.14 525.837C180.69 525.633 180.316 525.323 180.018 524.906C179.724 524.49 179.577 523.964 179.577 523.33V512.477ZM186.104 526V515.091H187.781V526H186.104ZM186.957 513.273C186.63 513.273 186.348 513.161 186.112 512.939C185.879 512.716 185.763 512.449 185.763 512.136C185.763 511.824 185.879 511.556 186.112 511.334C186.348 511.111 186.63 511 186.957 511C187.283 511 187.563 511.111 187.795 511.334C188.031 511.556 188.15 511.824 188.15 512.136C188.15 512.449 188.031 512.716 187.795 512.939C187.563 513.161 187.283 513.273 186.957 513.273ZM195.282 526.227C194.297 526.227 193.433 525.993 192.69 525.524C191.951 525.055 191.374 524.4 190.957 523.557C190.545 522.714 190.339 521.729 190.339 520.602C190.339 519.466 190.545 518.474 190.957 517.626C191.374 516.779 191.951 516.121 192.69 515.652C193.433 515.183 194.297 514.949 195.282 514.949C196.267 514.949 197.129 515.183 197.868 515.652C198.611 516.121 199.189 516.779 199.6 517.626C200.017 518.474 200.225 519.466 200.225 520.602C200.225 521.729 200.017 522.714 199.6 523.557C199.189 524.4 198.611 525.055 197.868 525.524C197.129 525.993 196.267 526.227 195.282 526.227ZM195.282 524.722C196.03 524.722 196.646 524.53 197.129 524.146C197.612 523.763 197.969 523.259 198.201 522.634C198.433 522.009 198.549 521.331 198.549 520.602C198.549 519.873 198.433 519.194 198.201 518.564C197.969 517.934 197.612 517.425 197.129 517.037C196.646 516.649 196.03 516.455 195.282 516.455C194.534 516.455 193.919 516.649 193.436 517.037C192.953 517.425 192.595 517.934 192.363 518.564C192.131 519.194 192.015 519.873 192.015 520.602C192.015 521.331 192.131 522.009 192.363 522.634C192.595 523.259 192.953 523.763 193.436 524.146C193.919 524.53 194.534 524.722 195.282 524.722ZM204.46 519.438V526H202.784V515.091H204.403V516.795H204.545C204.801 516.241 205.189 515.796 205.71 515.46C206.231 515.119 206.903 514.949 207.727 514.949C208.466 514.949 209.112 515.1 209.666 515.403C210.22 515.702 210.651 516.156 210.959 516.767C211.267 517.373 211.42 518.14 211.42 519.068V526H209.744V519.182C209.744 518.325 209.522 517.657 209.077 517.179C208.632 516.696 208.021 516.455 207.244 516.455C206.709 516.455 206.231 516.571 205.81 516.803C205.393 517.035 205.064 517.373 204.822 517.818C204.581 518.263 204.46 518.803 204.46 519.438ZM222.211 517.534L220.705 517.96C220.61 517.709 220.471 517.465 220.286 517.229C220.106 516.987 219.86 516.788 219.547 516.632C219.235 516.476 218.835 516.398 218.347 516.398C217.679 516.398 217.123 516.552 216.678 516.859C216.238 517.162 216.017 517.548 216.017 518.017C216.017 518.434 216.169 518.763 216.472 519.004C216.775 519.246 217.248 519.447 217.892 519.608L219.512 520.006C220.487 520.242 221.214 520.605 221.692 521.092C222.17 521.575 222.409 522.198 222.409 522.96C222.409 523.585 222.23 524.144 221.87 524.636C221.515 525.129 221.017 525.517 220.378 525.801C219.739 526.085 218.996 526.227 218.148 526.227C217.035 526.227 216.114 525.986 215.385 525.503C214.656 525.02 214.194 524.314 214 523.386L215.591 522.989C215.743 523.576 216.029 524.016 216.451 524.31C216.877 524.603 217.433 524.75 218.12 524.75C218.901 524.75 219.521 524.584 219.98 524.253C220.444 523.917 220.676 523.514 220.676 523.045C220.676 522.667 220.544 522.349 220.279 522.094C220.014 521.833 219.606 521.639 219.057 521.511L217.239 521.085C216.24 520.848 215.506 520.482 215.037 519.984C214.573 519.482 214.341 518.855 214.341 518.102C214.341 517.487 214.514 516.942 214.86 516.469C215.21 515.995 215.686 515.624 216.287 515.354C216.893 515.084 217.58 514.949 218.347 514.949C219.426 514.949 220.274 515.186 220.89 515.659C221.51 516.133 221.95 516.758 222.211 517.534Z" fill="black"></path>
<line x1="388.238" y1="256.053" x2="481.238" y2="83.053" stroke="#AED3A2" stroke-width="4"></line>
<line x1="320.302" y1="408.126" x2="731.302" y2="255.126" stroke="#FED7AA" stroke-width="4"></line>
<line x1="644.286" y1="408.969" x2="736.286" y2="255.969" stroke="#FED7AA" stroke-width="4"></line>
<line x1="197.414" y1="495.088" x2="458.414" y2="415.088" stroke="#DBE9FE" stroke-width="4"></line>
<line x1="190.03" y1="496.657" x2="230.03" y2="266.657" stroke="#DBE9FE" stroke-width="4"></line>
<line x1="796.099" y1="404.621" x2="748.099" y2="257.621" stroke="#FED7AA" stroke-width="4"></line>
<line x1="826.197" y1="525.832" x2="616.197" y2="433.832" stroke="#FAB4AC" stroke-width="4"></line>
<rect x="482" y="43" width="269" height="39" stroke="#AED3A2" stroke-width="4"></rect>
<rect x="720" y="216" width="219" height="39" stroke="#FED7AA" stroke-width="4"></rect>
<rect x="54" y="499" width="202" height="39" stroke="#DBE9FE" stroke-width="4"></rect>
<path d="M847.755 522H845.994C845.889 521.493 845.707 521.048 845.447 520.665C845.191 520.281 844.879 519.959 844.509 519.699C844.145 519.434 843.74 519.235 843.295 519.102C842.85 518.97 842.386 518.903 841.903 518.903C841.022 518.903 840.224 519.126 839.509 519.571C838.799 520.016 838.233 520.672 837.812 521.538C837.395 522.405 837.187 523.468 837.187 524.727C837.187 525.987 837.395 527.05 837.812 527.916C838.233 528.783 838.799 529.438 839.509 529.884C840.224 530.329 841.022 530.551 841.903 530.551C842.386 530.551 842.85 530.485 843.295 530.352C843.74 530.22 844.145 530.023 844.509 529.763C844.879 529.498 845.191 529.173 845.447 528.79C845.707 528.402 845.889 527.956 845.994 527.455H847.755C847.622 528.198 847.381 528.863 847.031 529.45C846.68 530.037 846.245 530.537 845.724 530.949C845.203 531.356 844.618 531.666 843.969 531.879C843.326 532.092 842.637 532.199 841.903 532.199C840.662 532.199 839.559 531.896 838.593 531.29C837.627 530.684 836.867 529.822 836.313 528.705C835.759 527.587 835.482 526.261 835.482 524.727C835.482 523.193 835.759 521.867 836.313 520.75C836.867 519.633 837.627 518.771 838.593 518.165C839.559 517.559 840.662 517.256 841.903 517.256C842.637 517.256 843.326 517.362 843.969 517.575C844.618 517.788 845.203 518.101 845.724 518.513C846.245 518.92 846.68 519.417 847.031 520.004C847.381 520.587 847.622 521.252 847.755 522ZM852.05 517.455V532H850.374V517.455H852.05ZM859.552 532.227C858.567 532.227 857.703 531.993 856.96 531.524C856.221 531.055 855.643 530.4 855.227 529.557C854.815 528.714 854.609 527.729 854.609 526.602C854.609 525.466 854.815 524.474 855.227 523.626C855.643 522.779 856.221 522.121 856.96 521.652C857.703 521.183 858.567 520.949 859.552 520.949C860.537 520.949 861.398 521.183 862.137 521.652C862.88 522.121 863.458 522.779 863.87 523.626C864.287 524.474 864.495 525.466 864.495 526.602C864.495 527.729 864.287 528.714 863.87 529.557C863.458 530.4 862.88 531.055 862.137 531.524C861.398 531.993 860.537 532.227 859.552 532.227ZM859.552 530.722C860.3 530.722 860.915 530.53 861.398 530.146C861.881 529.763 862.239 529.259 862.471 528.634C862.703 528.009 862.819 527.331 862.819 526.602C862.819 525.873 862.703 525.194 862.471 524.564C862.239 523.934 861.881 523.425 861.398 523.037C860.915 522.649 860.3 522.455 859.552 522.455C858.804 522.455 858.188 522.649 857.705 523.037C857.222 523.425 856.865 523.934 856.633 524.564C856.401 525.194 856.285 525.873 856.285 526.602C856.285 527.331 856.401 528.009 856.633 528.634C856.865 529.259 857.222 529.763 857.705 530.146C858.188 530.53 858.804 530.722 859.552 530.722ZM874.781 523.534L873.275 523.96C873.181 523.709 873.041 523.465 872.856 523.229C872.676 522.987 872.43 522.788 872.118 522.632C871.805 522.476 871.405 522.398 870.917 522.398C870.25 522.398 869.693 522.552 869.248 522.859C868.808 523.162 868.588 523.548 868.588 524.017C868.588 524.434 868.739 524.763 869.042 525.004C869.345 525.246 869.819 525.447 870.463 525.608L872.082 526.006C873.057 526.242 873.784 526.605 874.262 527.092C874.741 527.575 874.98 528.198 874.98 528.96C874.98 529.585 874.8 530.144 874.44 530.636C874.085 531.129 873.588 531.517 872.949 531.801C872.309 532.085 871.566 532.227 870.718 532.227C869.606 532.227 868.685 531.986 867.956 531.503C867.226 531.02 866.765 530.314 866.571 529.386L868.162 528.989C868.313 529.576 868.6 530.016 869.021 530.31C869.447 530.603 870.003 530.75 870.69 530.75C871.471 530.75 872.092 530.584 872.551 530.253C873.015 529.917 873.247 529.514 873.247 529.045C873.247 528.667 873.114 528.349 872.849 528.094C872.584 527.833 872.177 527.639 871.627 527.511L869.809 527.085C868.81 526.848 868.076 526.482 867.608 525.984C867.144 525.482 866.912 524.855 866.912 524.102C866.912 523.487 867.084 522.942 867.43 522.469C867.78 521.995 868.256 521.624 868.858 521.354C869.464 521.084 870.15 520.949 870.917 520.949C871.997 520.949 872.844 521.186 873.46 521.659C874.08 522.133 874.52 522.758 874.781 523.534ZM882.077 532.227C881.026 532.227 880.119 531.995 879.357 531.531C878.599 531.062 878.014 530.409 877.602 529.571C877.195 528.728 876.991 527.748 876.991 526.631C876.991 525.513 877.195 524.528 877.602 523.676C878.014 522.819 878.587 522.152 879.321 521.673C880.06 521.19 880.921 520.949 881.906 520.949C882.474 520.949 883.036 521.044 883.589 521.233C884.143 521.422 884.648 521.73 885.102 522.156C885.557 522.578 885.919 523.136 886.189 523.832C886.459 524.528 886.594 525.385 886.594 526.403V527.114H878.185V525.665H884.889C884.889 525.049 884.766 524.5 884.52 524.017C884.278 523.534 883.933 523.153 883.483 522.874C883.038 522.594 882.512 522.455 881.906 522.455C881.239 522.455 880.661 522.62 880.173 522.952C879.69 523.278 879.319 523.705 879.058 524.23C878.798 524.756 878.668 525.319 878.668 525.92V526.886C878.668 527.71 878.81 528.409 879.094 528.982C879.383 529.55 879.783 529.983 880.294 530.281C880.805 530.575 881.4 530.722 882.077 530.722C882.517 530.722 882.915 530.66 883.27 530.537C883.63 530.409 883.94 530.22 884.2 529.969C884.461 529.713 884.662 529.396 884.804 529.017L886.423 529.472C886.253 530.021 885.966 530.504 885.564 530.92C885.161 531.332 884.664 531.654 884.072 531.886C883.481 532.114 882.815 532.227 882.077 532.227ZM893.263 532.227C892.354 532.227 891.551 531.998 890.855 531.538C890.159 531.074 889.615 530.421 889.222 529.578C888.829 528.731 888.632 527.729 888.632 526.574C888.632 525.428 888.829 524.434 889.222 523.591C889.615 522.748 890.161 522.097 890.862 521.638C891.563 521.179 892.373 520.949 893.291 520.949C894.001 520.949 894.563 521.067 894.974 521.304C895.391 521.536 895.708 521.801 895.926 522.099C896.149 522.393 896.321 522.634 896.445 522.824H896.587V517.455H898.263V532H896.643V530.324H896.445C896.321 530.523 896.146 530.774 895.919 531.077C895.692 531.375 895.367 531.643 894.946 531.879C894.525 532.111 893.964 532.227 893.263 532.227ZM893.49 530.722C894.162 530.722 894.731 530.546 895.195 530.196C895.659 529.841 896.011 529.351 896.253 528.726C896.494 528.096 896.615 527.369 896.615 526.545C896.615 525.731 896.497 525.018 896.26 524.408C896.023 523.792 895.673 523.314 895.209 522.973C894.745 522.627 894.172 522.455 893.49 522.455C892.78 522.455 892.188 522.637 891.714 523.001C891.246 523.361 890.893 523.851 890.656 524.472C890.424 525.087 890.308 525.778 890.308 526.545C890.308 527.322 890.427 528.027 890.663 528.662C890.905 529.292 891.26 529.794 891.729 530.168C892.202 530.537 892.789 530.722 893.49 530.722ZM907.19 536.091V521.091H908.81V522.824H909.009C909.132 522.634 909.302 522.393 909.52 522.099C909.742 521.801 910.06 521.536 910.472 521.304C910.888 521.067 911.452 520.949 912.162 520.949C913.08 520.949 913.89 521.179 914.591 521.638C915.292 522.097 915.839 522.748 916.232 523.591C916.625 524.434 916.821 525.428 916.821 526.574C916.821 527.729 916.625 528.731 916.232 529.578C915.839 530.421 915.294 531.074 914.598 531.538C913.902 531.998 913.099 532.227 912.19 532.227C911.49 532.227 910.929 532.111 910.507 531.879C910.086 531.643 909.761 531.375 909.534 531.077C909.307 530.774 909.132 530.523 909.009 530.324H908.866V536.091H907.19ZM908.838 526.545C908.838 527.369 908.959 528.096 909.2 528.726C909.442 529.351 909.795 529.841 910.259 530.196C910.723 530.546 911.291 530.722 911.963 530.722C912.664 530.722 913.249 530.537 913.717 530.168C914.191 529.794 914.546 529.292 914.783 528.662C915.024 528.027 915.145 527.322 915.145 526.545C915.145 525.778 915.027 525.087 914.79 524.472C914.558 523.851 914.205 523.361 913.732 523.001C913.263 522.637 912.673 522.455 911.963 522.455C911.281 522.455 910.708 522.627 910.244 522.973C909.78 523.314 909.43 523.792 909.193 524.408C908.956 525.018 908.838 525.731 908.838 526.545ZM923.81 532.227C922.825 532.227 921.961 531.993 921.217 531.524C920.479 531.055 919.901 530.4 919.484 529.557C919.072 528.714 918.866 527.729 918.866 526.602C918.866 525.466 919.072 524.474 919.484 523.626C919.901 522.779 920.479 522.121 921.217 521.652C921.961 521.183 922.825 520.949 923.81 520.949C924.795 520.949 925.656 521.183 926.395 521.652C927.138 522.121 927.716 522.779 928.128 523.626C928.545 524.474 928.753 525.466 928.753 526.602C928.753 527.729 928.545 528.714 928.128 529.557C927.716 530.4 927.138 531.055 926.395 531.524C925.656 531.993 924.795 532.227 923.81 532.227ZM923.81 530.722C924.558 530.722 925.173 530.53 925.656 530.146C926.139 529.763 926.497 529.259 926.729 528.634C926.961 528.009 927.077 527.331 927.077 526.602C927.077 525.873 926.961 525.194 926.729 524.564C926.497 523.934 926.139 523.425 925.656 523.037C925.173 522.649 924.558 522.455 923.81 522.455C923.062 522.455 922.446 522.649 921.963 523.037C921.48 523.425 921.123 523.934 920.891 524.564C920.659 525.194 920.543 525.873 920.543 526.602C920.543 527.331 920.659 528.009 920.891 528.634C921.123 529.259 921.48 529.763 921.963 530.146C922.446 530.53 923.062 530.722 923.81 530.722ZM939.039 523.534L937.533 523.96C937.438 523.709 937.299 523.465 937.114 523.229C936.934 522.987 936.688 522.788 936.375 522.632C936.063 522.476 935.663 522.398 935.175 522.398C934.507 522.398 933.951 522.552 933.506 522.859C933.066 523.162 932.846 523.548 932.846 524.017C932.846 524.434 932.997 524.763 933.3 525.004C933.603 525.246 934.077 525.447 934.721 525.608L936.34 526.006C937.315 526.242 938.042 526.605 938.52 527.092C938.998 527.575 939.238 528.198 939.238 528.96C939.238 529.585 939.058 530.144 938.698 530.636C938.343 531.129 937.846 531.517 937.206 531.801C936.567 532.085 935.824 532.227 934.976 532.227C933.864 532.227 932.943 531.986 932.213 531.503C931.484 531.02 931.023 530.314 930.828 529.386L932.419 528.989C932.571 529.576 932.857 530.016 933.279 530.31C933.705 530.603 934.261 530.75 934.948 530.75C935.729 530.75 936.349 530.584 936.809 530.253C937.273 529.917 937.505 529.514 937.505 529.045C937.505 528.667 937.372 528.349 937.107 528.094C936.842 527.833 936.435 527.639 935.885 527.511L934.067 527.085C933.068 526.848 932.334 526.482 931.865 525.984C931.401 525.482 931.169 524.855 931.169 524.102C931.169 523.487 931.342 522.942 931.688 522.469C932.038 521.995 932.514 521.624 933.115 521.354C933.721 521.084 934.408 520.949 935.175 520.949C936.255 520.949 937.102 521.186 937.718 521.659C938.338 522.133 938.778 522.758 939.039 523.534ZM941.761 532V521.091H943.437V532H941.761ZM942.613 519.273C942.286 519.273 942.004 519.161 941.768 518.939C941.536 518.716 941.42 518.449 941.42 518.136C941.42 517.824 941.536 517.556 941.768 517.334C942.004 517.111 942.286 517 942.613 517C942.94 517 943.219 517.111 943.451 517.334C943.688 517.556 943.806 517.824 943.806 518.136C943.806 518.449 943.688 518.716 943.451 518.939C943.219 519.161 942.94 519.273 942.613 519.273ZM951.251 521.091V522.511H945.598V521.091H951.251ZM947.245 518.477H948.922V528.875C948.922 529.348 948.99 529.704 949.127 529.94C949.27 530.172 949.449 530.329 949.667 530.409C949.89 530.485 950.124 530.523 950.37 530.523C950.555 530.523 950.707 530.513 950.825 530.494C950.943 530.471 951.038 530.452 951.109 530.438L951.45 531.943C951.336 531.986 951.178 532.028 950.974 532.071C950.77 532.118 950.512 532.142 950.2 532.142C949.726 532.142 949.262 532.04 948.808 531.837C948.358 531.633 947.984 531.323 947.686 530.906C947.392 530.49 947.245 529.964 947.245 529.33V518.477ZM953.772 532V521.091H955.449V532H953.772ZM954.625 519.273C954.298 519.273 954.016 519.161 953.779 518.939C953.547 518.716 953.431 518.449 953.431 518.136C953.431 517.824 953.547 517.556 953.779 517.334C954.016 517.111 954.298 517 954.625 517C954.951 517 955.231 517.111 955.463 517.334C955.699 517.556 955.818 517.824 955.818 518.136C955.818 518.449 955.699 518.716 955.463 518.939C955.231 519.161 954.951 519.273 954.625 519.273ZM962.95 532.227C961.965 532.227 961.101 531.993 960.358 531.524C959.619 531.055 959.042 530.4 958.625 529.557C958.213 528.714 958.007 527.729 958.007 526.602C958.007 525.466 958.213 524.474 958.625 523.626C959.042 522.779 959.619 522.121 960.358 521.652C961.101 521.183 961.965 520.949 962.95 520.949C963.935 520.949 964.797 521.183 965.536 521.652C966.279 522.121 966.857 522.779 967.268 523.626C967.685 524.474 967.893 525.466 967.893 526.602C967.893 527.729 967.685 528.714 967.268 529.557C966.857 530.4 966.279 531.055 965.536 531.524C964.797 531.993 963.935 532.227 962.95 532.227ZM962.95 530.722C963.698 530.722 964.314 530.53 964.797 530.146C965.28 529.763 965.637 529.259 965.869 528.634C966.101 528.009 966.217 527.331 966.217 526.602C966.217 525.873 966.101 525.194 965.869 524.564C965.637 523.934 965.28 523.425 964.797 523.037C964.314 522.649 963.698 522.455 962.95 522.455C962.202 522.455 961.587 522.649 961.104 523.037C960.621 523.425 960.263 523.934 960.031 524.564C959.799 525.194 959.683 525.873 959.683 526.602C959.683 527.331 959.799 528.009 960.031 528.634C960.263 529.259 960.621 529.763 961.104 530.146C961.587 530.53 962.202 530.722 962.95 530.722ZM972.128 525.438V532H970.452V521.091H972.071V522.795H972.213C972.469 522.241 972.857 521.796 973.378 521.46C973.899 521.119 974.571 520.949 975.395 520.949C976.134 520.949 976.78 521.1 977.334 521.403C977.888 521.702 978.319 522.156 978.627 522.767C978.935 523.373 979.088 524.14 979.088 525.068V532H977.412V525.182C977.412 524.325 977.19 523.657 976.745 523.179C976.3 522.696 975.689 522.455 974.912 522.455C974.377 522.455 973.899 522.571 973.478 522.803C973.061 523.035 972.732 523.373 972.49 523.818C972.249 524.263 972.128 524.803 972.128 525.438ZM989.879 523.534L988.373 523.96C988.278 523.709 988.138 523.465 987.954 523.229C987.774 522.987 987.528 522.788 987.215 522.632C986.903 522.476 986.503 522.398 986.015 522.398C985.347 522.398 984.791 522.552 984.346 522.859C983.906 523.162 983.685 523.548 983.685 524.017C983.685 524.434 983.837 524.763 984.14 525.004C984.443 525.246 984.916 525.447 985.56 525.608L987.18 526.006C988.155 526.242 988.882 526.605 989.36 527.092C989.838 527.575 990.077 528.198 990.077 528.96C990.077 529.585 989.897 530.144 989.538 530.636C989.183 531.129 988.685 531.517 988.046 531.801C987.407 532.085 986.664 532.227 985.816 532.227C984.703 532.227 983.782 531.986 983.053 531.503C982.324 531.02 981.862 530.314 981.668 529.386L983.259 528.989C983.411 529.576 983.697 530.016 984.119 530.31C984.545 530.603 985.101 530.75 985.788 530.75C986.569 530.75 987.189 530.584 987.648 530.253C988.112 529.917 988.344 529.514 988.344 529.045C988.344 528.667 988.212 528.349 987.947 528.094C987.682 527.833 987.274 527.639 986.725 527.511L984.907 527.085C983.908 526.848 983.174 526.482 982.705 525.984C982.241 525.482 982.009 524.855 982.009 524.102C982.009 523.487 982.182 522.942 982.528 522.469C982.878 521.995 983.354 521.624 983.955 521.354C984.561 521.084 985.248 520.949 986.015 520.949C987.094 520.949 987.942 521.186 988.558 521.659C989.178 522.133 989.618 522.758 989.879 523.534ZM1000.7 532L997.373 521.091H999.135L1001.49 529.443H1001.61L1003.94 521.091H1005.73L1008.03 529.415H1008.14L1010.5 521.091H1012.26L1008.94 532H1007.29L1004.9 523.619H1004.73L1002.34 532H1000.7ZM1014.48 532V521.091H1016.15V532H1014.48ZM1015.33 519.273C1015 519.273 1014.72 519.161 1014.48 518.939C1014.25 518.716 1014.13 518.449 1014.13 518.136C1014.13 517.824 1014.25 517.556 1014.48 517.334C1014.72 517.111 1015 517 1015.33 517C1015.65 517 1015.93 517.111 1016.17 517.334C1016.4 517.556 1016.52 517.824 1016.52 518.136C1016.52 518.449 1016.4 518.716 1016.17 518.939C1015.93 519.161 1015.65 519.273 1015.33 519.273ZM1023.97 521.091V522.511H1018.31V521.091H1023.97ZM1019.96 518.477H1021.64V528.875C1021.64 529.348 1021.71 529.704 1021.84 529.94C1021.98 530.172 1022.16 530.329 1022.38 530.409C1022.6 530.485 1022.84 530.523 1023.09 530.523C1023.27 530.523 1023.42 530.513 1023.54 530.494C1023.66 530.471 1023.75 530.452 1023.82 530.438L1024.16 531.943C1024.05 531.986 1023.89 532.028 1023.69 532.071C1023.49 532.118 1023.23 532.142 1022.91 532.142C1022.44 532.142 1021.98 532.04 1021.52 531.837C1021.07 531.633 1020.7 531.323 1020.4 530.906C1020.11 530.49 1019.96 529.964 1019.96 529.33V518.477ZM1028.4 525.438V532H1026.72V517.455H1028.4V522.795H1028.54C1028.8 522.232 1029.18 521.785 1029.69 521.453C1030.21 521.117 1030.89 520.949 1031.75 520.949C1032.49 520.949 1033.14 521.098 1033.7 521.396C1034.26 521.69 1034.7 522.142 1035 522.753C1035.32 523.359 1035.47 524.131 1035.47 525.068V532H1033.8V525.182C1033.8 524.315 1033.57 523.645 1033.12 523.172C1032.68 522.694 1032.06 522.455 1031.27 522.455C1030.72 522.455 1030.23 522.571 1029.79 522.803C1029.36 523.035 1029.02 523.373 1028.77 523.818C1028.52 524.263 1028.4 524.803 1028.4 525.438Z" fill="black"></path>
<path d="M1044.39 532V517.455H1046.15V530.438H1052.91V532H1044.39ZM1059.84 532.227C1058.86 532.227 1058 531.993 1057.25 531.524C1056.51 531.055 1055.94 530.4 1055.52 529.557C1055.11 528.714 1054.9 527.729 1054.9 526.602C1054.9 525.466 1055.11 524.474 1055.52 523.626C1055.94 522.779 1056.51 522.121 1057.25 521.652C1058 521.183 1058.86 520.949 1059.84 520.949C1060.83 520.949 1061.69 521.183 1062.43 521.652C1063.17 522.121 1063.75 522.779 1064.16 523.626C1064.58 524.474 1064.79 525.466 1064.79 526.602C1064.79 527.729 1064.58 528.714 1064.16 529.557C1063.75 530.4 1063.17 531.055 1062.43 531.524C1061.69 531.993 1060.83 532.227 1059.84 532.227ZM1059.84 530.722C1060.59 530.722 1061.21 530.53 1061.69 530.146C1062.17 529.763 1062.53 529.259 1062.76 528.634C1063 528.009 1063.11 527.331 1063.11 526.602C1063.11 525.873 1063 525.194 1062.76 524.564C1062.53 523.934 1062.17 523.425 1061.69 523.037C1061.21 522.649 1060.59 522.455 1059.84 522.455C1059.1 522.455 1058.48 522.649 1058 523.037C1057.52 523.425 1057.16 523.934 1056.93 524.564C1056.69 525.194 1056.58 525.873 1056.58 526.602C1056.58 527.331 1056.69 528.009 1056.93 528.634C1057.16 529.259 1057.52 529.763 1058 530.146C1058.48 530.53 1059.1 530.722 1059.84 530.722ZM1075.07 523.534L1073.57 523.96C1073.47 523.709 1073.33 523.465 1073.15 523.229C1072.97 522.987 1072.72 522.788 1072.41 522.632C1072.1 522.476 1071.7 522.398 1071.21 522.398C1070.54 522.398 1069.99 522.552 1069.54 522.859C1069.1 523.162 1068.88 523.548 1068.88 524.017C1068.88 524.434 1069.03 524.763 1069.34 525.004C1069.64 525.246 1070.11 525.447 1070.76 525.608L1072.38 526.006C1073.35 526.242 1074.08 526.605 1074.56 527.092C1075.03 527.575 1075.27 528.198 1075.27 528.96C1075.27 529.585 1075.09 530.144 1074.73 530.636C1074.38 531.129 1073.88 531.517 1073.24 531.801C1072.6 532.085 1071.86 532.227 1071.01 532.227C1069.9 532.227 1068.98 531.986 1068.25 531.503C1067.52 531.02 1067.06 530.314 1066.86 529.386L1068.45 528.989C1068.61 529.576 1068.89 530.016 1069.31 530.31C1069.74 530.603 1070.3 530.75 1070.98 530.75C1071.76 530.75 1072.38 530.584 1072.84 530.253C1073.31 529.917 1073.54 529.514 1073.54 529.045C1073.54 528.667 1073.41 528.349 1073.14 528.094C1072.88 527.833 1072.47 527.639 1071.92 527.511L1070.1 527.085C1069.1 526.848 1068.37 526.482 1067.9 525.984C1067.44 525.482 1067.2 524.855 1067.2 524.102C1067.2 523.487 1067.38 522.942 1067.72 522.469C1068.07 521.995 1068.55 521.624 1069.15 521.354C1069.76 521.084 1070.44 520.949 1071.21 520.949C1072.29 520.949 1073.14 521.186 1073.75 521.659C1074.37 522.133 1074.81 522.758 1075.07 523.534ZM1085.52 523.534L1084.02 523.96C1083.92 523.709 1083.78 523.465 1083.6 523.229C1083.42 522.987 1083.17 522.788 1082.86 522.632C1082.55 522.476 1082.15 522.398 1081.66 522.398C1080.99 522.398 1080.44 522.552 1079.99 522.859C1079.55 523.162 1079.33 523.548 1079.33 524.017C1079.33 524.434 1079.48 524.763 1079.78 525.004C1080.09 525.246 1080.56 525.447 1081.2 525.608L1082.82 526.006C1083.8 526.242 1084.53 526.605 1085 527.092C1085.48 527.575 1085.72 528.198 1085.72 528.96C1085.72 529.585 1085.54 530.144 1085.18 530.636C1084.83 531.129 1084.33 531.517 1083.69 531.801C1083.05 532.085 1082.31 532.227 1081.46 532.227C1080.35 532.227 1079.43 531.986 1078.7 531.503C1077.97 531.02 1077.51 530.314 1077.31 529.386L1078.9 528.989C1079.06 529.576 1079.34 530.016 1079.76 530.31C1080.19 530.603 1080.75 530.75 1081.43 530.75C1082.21 530.75 1082.83 530.584 1083.29 530.253C1083.76 529.917 1083.99 529.514 1083.99 529.045C1083.99 528.667 1083.86 528.349 1083.59 528.094C1083.33 527.833 1082.92 527.639 1082.37 527.511L1080.55 527.085C1079.55 526.848 1078.82 526.482 1078.35 525.984C1077.89 525.482 1077.65 524.855 1077.65 524.102C1077.65 523.487 1077.83 522.942 1078.17 522.469C1078.52 521.995 1079 521.624 1079.6 521.354C1080.21 521.084 1080.89 520.949 1081.66 520.949C1082.74 520.949 1083.59 521.186 1084.2 521.659C1084.82 522.133 1085.26 522.758 1085.52 523.534Z" fill="black"></path>
<rect x="826" y="505" width="269" height="39" stroke="#FAB4AC" stroke-width="4"></rect>
<defs>
<pattern id="pattern0_403_82" patternContentUnits="objectBoundingBox" width="1" height="1">
<use xlink:href="#image0_403_82" transform="scale(0.000449438 0.000865052)"></use>
</pattern>
<pattern id="pattern1_403_82" patternContentUnits="objectBoundingBox" width="1" height="1">
<use xlink:href="#image0_403_82" transform="scale(0.000449438 0.000865052)"></use>
</pattern>
<pattern id="pattern2_403_82" patternContentUnits="objectBoundingBox" width="1" height="1">
<use xlink:href="#image0_403_82" transform="scale(0.000449438 0.000865052)"></use>
</pattern>
<pattern id="pattern3_403_82" patternContentUnits="objectBoundingBox" width="1" height="1">
<use xlink:href="#image0_403_82" transform="scale(0.000449438 0.000865052)"></use>
</pattern>
<image id="image0_403_82" width="2225" height="1156" preserveAspectRatio="none"></image>
</defs>
</svg>