<svg width="100" height="100" viewBox="0 0 100 100" fill="none" xmlns="http://www.w3.org/2000/svg">
<rect width="100" height="100" rx="12" fill="#201E1D"></rect>
<rect x="10" y="10" width="80" height="80" rx="4" fill="url(#paint0_linear_2006_2)"></rect>
<circle cx="16.5" cy="16.5" r="1.5" fill="#201E1D"></circle>
<circle cx="83.5" cy="16.5" r="1.5" fill="#201E1D"></circle>
<circle cx="83.5" cy="83.5" r="1.5" fill="#201E1D"></circle>
<circle cx="16.5" cy="83.5" r="1.5" fill="#201E1D"></circle>
<path d="M14.5577 40.2H26.6537V43.224H22.1897V57H19.0217V43.224H14.5577V40.2ZM29.253 45.096H34.293V46.824H34.725C34.949 46.168 35.325 45.664 35.853 45.312C36.397 44.944 37.045 44.76 37.797 44.76C38.981 44.76 39.933 45.136 40.653 45.888C41.373 46.624 41.733 47.752 41.733 49.272V49.8L38.613 50.088V49.752C38.613 49.096 38.445 48.576 38.109 48.192C37.773 47.792 37.269 47.592 36.597 47.592C35.925 47.592 35.397 47.824 35.013 48.288C34.629 48.752 34.437 49.416 34.437 50.28V54.12H37.173V57H28.965V54.12H31.413V47.976H29.253V45.096ZM52.2283 55.272C51.9083 56.024 51.4603 56.56 50.8843 56.88C50.3083 57.184 49.6363 57.336 48.8683 57.336C48.1483 57.336 47.4683 57.2 46.8283 56.928C46.2043 56.656 45.6523 56.256 45.1723 55.728C44.6923 55.2 44.3083 54.56 44.0203 53.808C43.7483 53.056 43.6123 52.2 43.6123 51.24V50.856C43.6123 49.912 43.7483 49.064 44.0203 48.312C44.2923 47.56 44.6603 46.92 45.1243 46.392C45.5883 45.864 46.1243 45.464 46.7323 45.192C47.3563 44.904 48.0203 44.76 48.7243 44.76C49.5723 44.76 50.2523 44.904 50.7643 45.192C51.2923 45.48 51.7083 45.928 52.0123 46.536H52.4443V45.096H55.4683V53.4C55.4683 53.88 55.6843 54.12 56.1163 54.12H56.5723V57H54.5083C53.9643 57 53.5163 56.84 53.1643 56.52C52.8283 56.2 52.6603 55.784 52.6603 55.272H52.2283ZM49.5403 54.456C50.4203 54.456 51.1243 54.168 51.6523 53.592C52.1803 53 52.4443 52.2 52.4443 51.192V50.904C52.4443 49.896 52.1803 49.104 51.6523 48.528C51.1243 47.936 50.4203 47.64 49.5403 47.64C48.6603 47.64 47.9563 47.936 47.4283 48.528C46.9003 49.104 46.6363 49.896 46.6363 50.904V51.192C46.6363 52.2 46.9003 53 47.4283 53.592C47.9563 54.168 48.6603 54.456 49.5403 54.456ZM67.7637 55.272H67.3317C67.2037 55.544 67.0437 55.808 66.8517 56.064C66.6757 56.304 66.4357 56.52 66.1317 56.712C65.8437 56.904 65.4917 57.056 65.0757 57.168C64.6757 57.28 64.1877 57.336 63.6117 57.336C62.8757 57.336 62.1877 57.208 61.5477 56.952C60.9237 56.68 60.3717 56.288 59.8917 55.776C59.4277 55.248 59.0597 54.608 58.7877 53.856C58.5317 53.104 58.4037 52.24 58.4037 51.264V50.832C58.4037 49.872 58.5397 49.016 58.8117 48.264C59.0997 47.512 59.4837 46.88 59.9637 46.368C60.4597 45.84 61.0277 45.44 61.6677 45.168C62.3237 44.896 63.0117 44.76 63.7317 44.76C64.6917 44.76 65.4517 44.944 66.0117 45.312C66.5717 45.664 67.0117 46.168 67.3317 46.824H67.7637V40.2H70.7877V57H67.7637V55.272ZM64.5957 54.456C65.5397 54.456 66.2997 54.16 66.8757 53.568C67.4677 52.96 67.7637 52.168 67.7637 51.192V50.904C67.7637 49.928 67.4677 49.144 66.8757 48.552C66.2997 47.944 65.5397 47.64 64.5957 47.64C63.6517 47.64 62.8837 47.936 62.2917 48.528C61.7157 49.104 61.4277 49.896 61.4277 50.904V51.192C61.4277 52.2 61.7157 53 62.2917 53.592C62.8837 54.168 63.6517 54.456 64.5957 54.456ZM76.579 52.032C76.595 52.384 76.675 52.712 76.819 53.016C76.979 53.304 77.187 53.56 77.443 53.784C77.715 53.992 78.019 54.16 78.355 54.288C78.707 54.4 79.075 54.456 79.459 54.456C80.211 54.456 80.787 54.328 81.187 54.072C81.587 53.8 81.875 53.48 82.051 53.112L84.643 54.552C84.499 54.856 84.299 55.176 84.043 55.512C83.787 55.832 83.451 56.128 83.035 56.4C82.635 56.672 82.139 56.896 81.547 57.072C80.971 57.248 80.291 57.336 79.507 57.336C78.611 57.336 77.795 57.192 77.059 56.904C76.323 56.616 75.683 56.2 75.139 55.656C74.611 55.112 74.195 54.448 73.891 53.664C73.603 52.88 73.459 51.992 73.459 51V50.856C73.459 49.944 73.611 49.112 73.915 48.36C74.235 47.608 74.667 46.968 75.211 46.44C75.755 45.912 76.387 45.504 77.107 45.216C77.843 44.912 78.627 44.76 79.459 44.76C80.483 44.76 81.363 44.944 82.099 45.312C82.835 45.664 83.443 46.12 83.923 46.68C84.403 47.224 84.755 47.832 84.979 48.504C85.203 49.16 85.315 49.8 85.315 50.424V52.032H76.579ZM79.435 47.496C78.667 47.496 78.043 47.696 77.563 48.096C77.083 48.48 76.771 48.928 76.627 49.44H82.243C82.147 48.88 81.843 48.416 81.331 48.048C80.835 47.68 80.203 47.496 79.435 47.496Z" fill="black"></path>
<defs>
<linearGradient id="paint0_linear_2006_2" x1="31.3333" y1="10" x2="75.3333" y2="97.3333" gradientUnits="userSpaceOnUse">
<stop stop-color="white" stop-opacity="0.85"></stop>
<stop offset="0.25" stop-color="#CCCCCC" stop-opacity="0.95"></stop>
<stop offset="0.5" stop-color="#E0E0E0" stop-opacity="0.9"></stop>
<stop offset="0.75" stop-color="#A6A6A6" stop-opacity="0.85"></stop>
<stop offset="1" stop-color="#999999" stop-opacity="0.85"></stop>
</linearGradient>
</defs>
</svg>